<?xml version="1.0" encoding="UTF-8"?>
<svg xmlns="http://www.w3.org/2000/svg" xmlns:xlink="http://www.w3.org/1999/xlink" width="400pt" height="400pt" viewBox="0 0 400 400" version="1.1">
<g id="surface1">
<path style=" stroke:none;fill-rule:nonzero;fill:rgb(0%,0%,0%);fill-opacity:1;" d="M 369.570312 153.457031 C 384.488281 145.992188 393.75 131 393.75 114.324219 L 393.75 81.25 C 393.75 58.023438 375.554688 38.960938 352.667969 37.582031 L 337.8125 22.726562 C 327.195312 12.101562 313.0625 6.25 298.042969 6.25 L 269.242188 6.25 C 244.84375 6.25 225 26.09375 225 50.492188 C 225 64.007812 231.050781 76.59375 241.605469 85.039062 L 252.238281 93.542969 C 250.042969 111.773438 250 124.269531 250 125 L 250 131.25 L 262.5 131.25 L 262.5 135.605469 C 262.5 146.710938 268.019531 157.019531 277.257812 163.179688 C 282.726562 166.824219 289.082031 168.75 295.644531 168.75 L 297.335938 168.75 C 298.230469 168.75 299.113281 168.554688 300 168.488281 L 300 191.125 L 288.386719 193.449219 C 285.664062 193.992188 283.164062 195.460938 281.355469 197.574219 L 273.851562 206.332031 C 266.070312 215.40625 259.769531 225.511719 254.917969 236.25 L 218.75 272.414062 L 218.75 248.84375 C 218.75 223.945312 208 200.261719 189.261719 183.867188 C 173.523438 170.085938 153.332031 162.5 132.40625 162.5 L 131.25 162.5 L 131.25 156.039062 C 145.75 154.96875 158.355469 145.945312 163.820312 132.273438 C 167.09375 124.101562 168.75 115.492188 168.75 106.6875 L 168.75 81.25 C 168.75 76.832031 167.804688 72.644531 166.144531 68.832031 C 175.679688 59.804688 181.25 47.085938 181.25 33.835938 C 181.25 26.46875 178.382812 19.539062 173.167969 14.332031 C 167.960938 9.117188 161.03125 6.25 153.664062 6.25 L 103.351562 6.25 C 87.429688 6.25 72.4375 12.480469 60.726562 24.195312 C 50.09375 34.820312 43.75 51.476562 43.75 68.75 C 43.75 91.132812 56.898438 104.59375 62.65625 109.425781 C 63.386719 117.957031 67.042969 125.886719 73.167969 132.011719 L 75 133.835938 L 75 162.574219 C 60.875 162.945312 47.363281 167.417969 35.832031 175.65625 C 17.304688 188.886719 6.25 210.367188 6.25 233.132812 L 6.25 287.5 C 6.25 308.804688 15.992188 327.875 31.25 340.492188 L 31.25 393.75 L 181.25 393.75 L 181.25 356.25 L 198.042969 356.25 C 213.070312 356.25 227.195312 350.398438 237.820312 339.773438 L 243.757812 333.835938 L 243.757812 393.75 L 393.757812 393.75 L 393.757812 236.585938 C 393.757812 228.039062 391.738281 219.480469 387.914062 211.84375 C 382.585938 201.207031 373.800781 192.417969 363.164062 187.09375 L 356.25 183.636719 L 356.25 160.113281 Z M 249.414062 75.273438 C 241.84375 69.21875 237.5 60.179688 237.5 50.492188 C 237.5 32.988281 251.738281 18.75 269.242188 18.75 L 298.042969 18.75 C 309.730469 18.75 320.710938 23.300781 328.980469 31.5625 L 347.414062 50 L 350 50 C 367.230469 50 381.25 64.019531 381.25 81.25 L 381.25 114.324219 C 381.25 126.238281 374.632812 136.949219 363.976562 142.273438 L 351.5 148.511719 C 348.457031 144.632812 346.269531 140.261719 345.144531 135.65625 C 344.53125 133.148438 344.113281 130.675781 343.90625 128.34375 C 348.617188 124.9375 356.25 117.675781 356.25 106.25 C 356.25 92.460938 345.039062 81.25 331.25 81.25 L 330.398438 81.25 C 329.167969 76.917969 326.613281 73.023438 322.75 69.617188 C 315.832031 63.523438 304.09375 56.25 287.5 56.25 C 273.6875 56.25 260.269531 62.882812 259.707031 63.15625 L 256.96875 64.523438 L 256.367188 67.519531 C 255.570312 71.519531 254.875 75.40625 254.261719 79.15625 Z M 302.386719 212.5 L 293.726562 212.5 L 293.742188 205.125 L 307.449219 202.386719 Z M 295.53125 284.085938 L 287.695312 269.980469 L 293.050781 225 L 301.238281 225 L 310.167969 265.1875 C 305.945312 271.949219 301.0625 278.28125 295.53125 284.085938 Z M 319.105469 247.804688 L 312.832031 219.5625 L 322.976562 199.28125 L 334.550781 196.96875 L 323.738281 234.804688 C 322.460938 239.261719 320.863281 243.574219 319.105469 247.804688 Z M 312.5 166.375 L 332.476562 162.382812 L 330.019531 150.125 L 301.382812 155.855469 C 300.054688 156.117188 298.699219 156.25 297.335938 156.25 L 295.644531 156.25 C 291.554688 156.25 287.59375 155.050781 284.195312 152.78125 C 278.4375 148.949219 275 142.523438 275 135.605469 L 275 118.75 L 262.679688 118.75 C 263.070312 110.011719 264.261719 92.96875 268.011719 73.144531 C 272.023438 71.5 279.882812 68.75 287.5 68.75 C 300.195312 68.75 309.179688 74.324219 314.488281 79 C 317.4375 81.601562 318.75 84.21875 318.75 87.5 L 318.75 93.75 L 331.25 93.75 C 338.144531 93.75 343.75 99.355469 343.75 106.25 C 343.75 114.636719 334.761719 119.382812 334.707031 119.40625 L 331.25 121.136719 L 331.25 125 C 331.25 129.269531 331.835938 133.851562 333 138.613281 C 334.800781 145.988281 338.492188 152.894531 343.75 158.738281 L 343.75 182.375 L 312.5 188.625 Z M 281.25 217.132812 L 281.25 218.382812 L 277.324219 251.324219 L 268.882812 236.125 C 272.335938 229.417969 276.46875 223.0625 281.25 217.132812 Z M 206.25 248.84375 L 206.25 284.914062 L 202.90625 288.257812 C 199.414062 291.75 194.574219 293.75 189.636719 293.75 L 181.25 293.75 L 181.25 256.25 L 168.75 256.25 L 168.75 293.75 L 162.539062 293.75 C 162.523438 293.75 162.519531 293.75 162.507812 293.75 C 162.5 293.75 162.5 293.75 162.5 293.75 L 118.75 293.75 L 118.75 276.238281 L 158.476562 179.757812 C 166.675781 182.851562 174.324219 187.398438 181.03125 193.269531 C 197.054688 207.292969 206.25 227.550781 206.25 248.84375 Z M 181.25 325.675781 C 181.257812 330.480469 179.382812 335.019531 175.957031 338.445312 C 172.554688 341.851562 168.0625 343.726562 163.292969 343.75 L 156.25 343.75 L 156.25 343.757812 L 143.75 343.757812 L 143.75 306.25 L 162.539062 306.25 C 172.835938 306.269531 181.230469 314.710938 181.25 325.675781 Z M 121.136719 175 L 114.886719 187.5 L 103.863281 187.5 L 97.613281 175 Z M 129.148438 218.136719 L 125.25 194.726562 L 135.054688 175.117188 C 138.867188 175.257812 142.648438 175.644531 146.355469 176.355469 Z M 83.636719 175 L 93.5 194.726562 L 90.394531 213.351562 L 72.507812 175.335938 C 73.96875 175.226562 75.40625 175 76.882812 175 Z M 105.292969 200 L 113.449219 200 L 120.125 240.050781 L 112.113281 259.511719 L 99.75 233.238281 Z M 156.25 106.6875 C 156.25 113.894531 154.894531 120.945312 152.210938 127.632812 C 148.300781 137.425781 138.949219 143.757812 128.398438 143.757812 C 123.320312 143.757812 118.398438 142.269531 114.175781 139.449219 L 103.460938 132.304688 L 96.53125 142.707031 L 107.242188 149.851562 C 110.792969 152.210938 114.6875 153.875 118.742188 154.9375 L 118.742188 162.5 L 87.492188 162.5 L 87.492188 128.664062 L 82 123.167969 C 77.488281 118.648438 75 112.636719 75 106.25 C 75 102.804688 77.804688 100 81.25 100 L 87.5 100 L 87.5 81.25 C 87.5 70.914062 95.914062 62.5 106.25 62.5 L 137.5 62.5 C 147.835938 62.5 156.25 70.914062 156.25 81.25 Z M 66.074219 95.261719 C 61.574219 90.007812 56.25 81.179688 56.25 68.75 C 56.25 54.71875 61.226562 41.363281 69.960938 32.625 C 78.914062 23.679688 90.769531 18.75 103.351562 18.75 L 153.664062 18.75 C 157.632812 18.75 161.523438 20.363281 164.332031 23.167969 C 167.136719 25.976562 168.75 29.867188 168.75 33.835938 C 168.75 43.0625 165.070312 51.90625 158.761719 58.488281 C 153.175781 53.261719 145.730469 50 137.5 50 L 106.25 50 C 89.019531 50 75 64.019531 75 81.25 L 75 88.570312 C 71.386719 89.851562 68.289062 92.210938 66.074219 95.261719 Z M 18.75 287.5 L 18.75 233.132812 C 18.75 214.394531 27.851562 196.710938 43.09375 185.824219 C 48.230469 182.15625 53.851562 179.429688 59.761719 177.605469 L 106.25 276.398438 L 106.25 293.75 L 68.75 293.75 L 68.75 256.25 L 56.25 256.25 L 56.25 293.75 C 56.25 300.644531 61.84375 306.25 68.710938 306.25 L 131.25 306.25 L 131.25 343.757812 L 75 343.75 C 43.988281 343.75 18.75 318.519531 18.75 287.5 Z M 168.75 381.25 L 43.75 381.25 L 43.75 348.664062 C 53.136719 353.480469 63.742188 356.25 75 356.25 L 163.195312 356.257812 L 163.199219 356.257812 C 163.230469 356.257812 163.261719 356.25 163.292969 356.25 L 168.75 356.25 Z M 228.976562 330.9375 C 220.710938 339.199219 209.726562 343.75 198.039062 343.75 L 187.6875 343.75 C 191.574219 338.492188 193.761719 332.15625 193.75 325.070312 C 193.738281 317.980469 191.28125 311.507812 187.300781 306.25 L 189.636719 306.25 C 197.867188 306.25 205.925781 302.914062 211.75 297.09375 L 246.445312 262.398438 C 244.726562 270.675781 243.75 279.125 243.75 287.675781 L 243.75 316.164062 Z M 256.25 287.675781 C 256.25 274.945312 258.480469 262.429688 262.617188 250.585938 L 286.136719 292.917969 C 285.28125 293.644531 284.476562 294.414062 283.59375 295.117188 L 281.25 297 L 281.25 381.25 L 256.25 381.25 Z M 357.570312 198.273438 C 365.804688 202.394531 372.605469 209.199219 376.726562 217.429688 C 379.6875 223.34375 381.25 229.96875 381.25 236.585938 L 381.25 381.25 L 343.75 381.25 L 343.75 281.25 L 331.25 281.25 L 331.25 381.25 L 293.75 381.25 L 293.75 302.960938 C 313.988281 286.011719 328.480469 263.695312 335.757812 238.242188 L 348.335938 194.210938 L 349.125 194.054688 Z M 357.570312 198.273438 "/>
<path style=" stroke:none;fill-rule:nonzero;fill:rgb(0%,0%,0%);fill-opacity:1;" d="M 318.75 350 C 318.75 353.453125 315.953125 356.25 312.5 356.25 C 309.046875 356.25 306.25 353.453125 306.25 350 C 306.25 346.546875 309.046875 343.75 312.5 343.75 C 315.953125 343.75 318.75 346.546875 318.75 350 Z M 318.75 350 "/>
<path style=" stroke:none;fill-rule:nonzero;fill:rgb(0%,0%,0%);fill-opacity:1;" d="M 318.75 325 C 318.75 328.453125 315.953125 331.25 312.5 331.25 C 309.046875 331.25 306.25 328.453125 306.25 325 C 306.25 321.546875 309.046875 318.75 312.5 318.75 C 315.953125 318.75 318.75 321.546875 318.75 325 Z M 318.75 325 "/>
</g>
</svg>
