<?xml version="1.0" encoding="UTF-8"?>
<svg xmlns="http://www.w3.org/2000/svg" xmlns:xlink="http://www.w3.org/1999/xlink" width="400pt" height="400pt" viewBox="0 0 400 400" version="1.1">
<g id="surface1">
<path style=" stroke:none;fill-rule:nonzero;fill:rgb(0%,0%,0%);fill-opacity:1;" d="M 62.1875 202.90625 L 83.058594 192.984375 L 97.753906 199.070312 L 105.496094 220.84375 C 106.382812 223.335938 108.738281 225 111.378906 225 L 138.621094 225 C 141.265625 225 143.621094 223.335938 144.507812 220.84375 L 152.25 199.070312 L 166.945312 192.984375 L 187.816406 202.90625 C 190.207031 204.039062 193.050781 203.546875 194.917969 201.679688 L 214.179688 182.421875 C 216.050781 180.550781 216.539062 177.707031 215.40625 175.320312 L 205.484375 154.445312 L 211.570312 139.753906 L 233.34375 132.011719 C 235.835938 131.125 237.5 128.765625 237.5 126.121094 L 237.5 98.878906 C 237.5 96.234375 235.835938 93.878906 233.34375 92.992188 L 211.570312 85.25 L 205.484375 70.554688 L 215.40625 49.683594 C 216.542969 47.292969 216.050781 44.449219 214.179688 42.578125 L 194.921875 23.320312 C 193.050781 21.449219 190.207031 20.960938 187.820312 22.09375 L 166.945312 32.015625 L 152.253906 25.929688 L 144.507812 4.15625 C 143.621094 1.664062 141.265625 0 138.621094 0 L 111.378906 0 C 108.734375 0 106.378906 1.664062 105.492188 4.15625 L 97.75 25.929688 L 83.054688 32.015625 L 62.1875 22.09375 C 59.796875 20.957031 56.949219 21.445312 55.078125 23.320312 L 35.820312 42.578125 C 33.945312 44.449219 33.457031 47.296875 34.59375 49.6875 L 44.515625 70.558594 L 38.429688 85.253906 L 16.65625 92.992188 C 14.164062 93.878906 12.5 96.234375 12.5 98.878906 L 12.5 126.121094 C 12.5 128.765625 14.164062 131.121094 16.65625 132.007812 L 38.429688 139.75 L 44.515625 154.445312 L 34.59375 175.316406 C 33.457031 177.707031 33.949219 180.550781 35.820312 182.421875 L 55.078125 201.679688 C 56.949219 203.550781 59.796875 204.042969 62.1875 202.90625 Z M 57.128906 152.226562 L 48.914062 132.402344 C 48.238281 130.769531 46.902344 129.496094 45.234375 128.90625 L 25 121.707031 L 25 103.292969 L 45.234375 96.09375 C 46.902344 95.5 48.238281 94.230469 48.914062 92.597656 L 57.128906 72.773438 C 57.804688 71.140625 57.757812 69.292969 57 67.695312 L 47.78125 48.296875 L 60.800781 35.277344 L 80.199219 44.496094 C 81.796875 45.257812 83.640625 45.304688 85.277344 44.625 L 105.101562 36.414062 C 106.734375 35.734375 108.003906 34.398438 108.59375 32.734375 L 115.792969 12.5 L 134.207031 12.5 L 141.40625 32.734375 C 142 34.402344 143.269531 35.738281 144.902344 36.414062 L 164.726562 44.628906 C 166.359375 45.308594 168.207031 45.261719 169.804688 44.5 L 189.203125 35.28125 L 202.226562 48.304688 L 193.007812 67.699219 C 192.246094 69.300781 192.199219 71.144531 192.878906 72.777344 L 201.089844 92.605469 C 201.765625 94.234375 203.101562 95.503906 204.765625 96.09375 L 225 103.289062 L 225 121.707031 L 204.765625 128.90625 C 203.097656 129.5 201.761719 130.769531 201.085938 132.402344 L 192.871094 152.226562 C 192.195312 153.859375 192.242188 155.707031 193 157.304688 L 202.21875 176.703125 L 189.195312 189.726562 L 169.800781 180.507812 C 168.203125 179.746094 166.355469 179.699219 164.722656 180.378906 L 144.894531 188.589844 C 143.265625 189.265625 141.996094 190.601562 141.40625 192.265625 L 134.207031 212.5 L 115.792969 212.5 L 108.59375 192.265625 C 108 190.597656 106.730469 189.261719 105.097656 188.585938 L 85.273438 180.371094 C 83.640625 179.691406 81.792969 179.738281 80.195312 180.5 L 60.796875 189.71875 L 47.777344 176.699219 L 56.996094 157.300781 C 57.757812 155.703125 57.804688 153.859375 57.128906 152.226562 Z M 57.128906 152.226562 "/>
<path style=" stroke:none;fill-rule:nonzero;fill:rgb(0%,0%,0%);fill-opacity:1;" d="M 125 168.75 C 156.066406 168.75 181.25 143.566406 181.25 112.5 C 181.25 81.433594 156.066406 56.25 125 56.25 C 93.933594 56.25 68.75 81.433594 68.75 112.5 C 68.785156 143.550781 93.949219 168.714844 125 168.75 Z M 125 68.75 C 149.164062 68.75 168.75 88.335938 168.75 112.5 C 168.75 136.664062 149.164062 156.25 125 156.25 C 100.835938 156.25 81.25 136.664062 81.25 112.5 C 81.277344 88.347656 100.847656 68.777344 125 68.75 Z M 125 68.75 "/>
<path style=" stroke:none;fill-rule:nonzero;fill:rgb(0%,0%,0%);fill-opacity:1;" d="M 245.9375 301.152344 L 237.726562 320.976562 C 237.046875 322.609375 237.09375 324.457031 237.855469 326.054688 L 247.074219 345.453125 L 234.050781 358.476562 L 214.652344 349.257812 C 213.054688 348.496094 211.210938 348.449219 209.574219 349.128906 L 189.757812 357.335938 C 188.125 358.011719 186.851562 359.347656 186.261719 361.015625 L 179.0625 381.25 L 160.648438 381.25 L 153.449219 361.015625 C 152.859375 359.347656 151.589844 358.011719 149.953125 357.335938 L 130.128906 349.125 C 128.496094 348.445312 126.648438 348.492188 125.050781 349.253906 L 105.652344 358.472656 L 92.628906 345.449219 L 101.847656 326.050781 C 102.609375 324.453125 102.65625 322.605469 101.976562 320.972656 L 93.765625 301.148438 C 93.089844 299.515625 91.753906 298.25 90.09375 297.65625 L 69.859375 290.460938 L 69.859375 272.042969 L 90.09375 264.84375 C 91.757812 264.253906 93.097656 262.980469 93.773438 261.347656 L 101.984375 241.523438 C 102.660156 239.890625 102.613281 238.042969 101.855469 236.445312 L 90.738281 213.0625 L 79.453125 218.4375 L 89.375 239.308594 L 83.289062 254.003906 L 61.515625 261.746094 C 59.023438 262.632812 57.359375 264.988281 57.359375 267.632812 L 57.359375 294.875 C 57.359375 297.519531 59.023438 299.875 61.515625 300.761719 L 83.289062 308.503906 L 89.375 323.199219 L 79.453125 344.070312 C 78.316406 346.460938 78.808594 349.304688 80.679688 351.171875 L 99.9375 370.429688 C 101.808594 372.300781 104.652344 372.789062 107.039062 371.65625 L 127.914062 361.734375 L 142.601562 367.820312 L 150.34375 389.59375 C 151.230469 392.085938 153.589844 393.75 156.238281 393.75 L 183.476562 393.75 C 186.121094 393.75 188.480469 392.085938 189.363281 389.59375 L 197.109375 367.820312 L 211.800781 361.734375 L 232.671875 371.65625 C 235.058594 372.789062 237.90625 372.300781 239.773438 370.429688 L 259.035156 351.171875 C 260.90625 349.300781 261.398438 346.457031 260.261719 344.070312 L 250.339844 323.195312 L 257.488281 305.9375 Z M 245.9375 301.152344 "/>
<path style=" stroke:none;fill-rule:nonzero;fill:rgb(0%,0%,0%);fill-opacity:1;" d="M 259.035156 211.328125 L 239.773438 192.070312 C 237.90625 190.199219 235.058594 189.710938 232.671875 190.84375 L 209.292969 201.960938 L 214.65625 213.25 L 234.054688 204.03125 L 247.078125 217.054688 L 237.859375 236.449219 C 237.097656 238.050781 237.050781 239.894531 237.730469 241.527344 L 244.820312 258.648438 L 256.367188 253.863281 L 250.34375 239.3125 L 260.265625 218.4375 C 261.402344 216.046875 260.910156 213.199219 259.035156 211.328125 Z M 259.035156 211.328125 "/>
<path style=" stroke:none;fill-rule:nonzero;fill:rgb(0%,0%,0%);fill-opacity:1;" d="M 169.855469 337.5 C 200.921875 337.5 226.105469 312.316406 226.105469 281.25 C 226.105469 250.183594 200.921875 225 169.855469 225 C 138.789062 225 113.605469 250.183594 113.605469 281.25 C 113.640625 312.300781 138.804688 337.464844 169.855469 337.5 Z M 169.855469 237.5 C 194.019531 237.5 213.605469 257.085938 213.605469 281.25 C 213.605469 305.414062 194.019531 325 169.855469 325 C 145.695312 325 126.105469 305.414062 126.105469 281.25 C 126.132812 257.097656 145.703125 237.527344 169.855469 237.5 Z M 169.855469 237.5 "/>
<path style=" stroke:none;fill-rule:nonzero;fill:rgb(0%,0%,0%);fill-opacity:1;" d="M 383.34375 111.742188 L 361.570312 104 L 355.484375 89.304688 L 365.40625 68.433594 C 366.542969 66.042969 366.050781 63.199219 364.179688 61.328125 L 344.921875 42.070312 C 343.050781 40.199219 340.207031 39.710938 337.820312 40.84375 L 316.945312 50.765625 L 302.253906 44.679688 L 294.511719 22.90625 C 293.625 20.414062 291.265625 18.75 288.621094 18.75 L 261.378906 18.75 C 258.734375 18.75 256.378906 20.414062 255.492188 22.90625 L 247.75 44.679688 L 230.488281 51.832031 L 235.273438 63.378906 L 255.097656 55.164062 C 256.730469 54.488281 258 53.152344 258.59375 51.484375 L 265.789062 31.25 L 284.207031 31.25 L 291.40625 51.484375 C 292 53.152344 293.269531 54.488281 294.902344 55.164062 L 314.726562 63.378906 C 316.359375 64.054688 318.207031 64.007812 319.804688 63.25 L 339.203125 54.03125 L 352.226562 67.054688 L 343.007812 86.449219 C 342.246094 88.050781 342.199219 89.894531 342.878906 91.527344 L 351.089844 111.355469 C 351.765625 112.984375 353.101562 114.25 354.765625 114.84375 L 375 122.039062 L 375 140.457031 L 354.765625 147.65625 C 353.097656 148.25 351.761719 149.519531 351.085938 151.152344 L 342.871094 170.976562 C 342.195312 172.609375 342.242188 174.457031 343 176.054688 L 352.21875 195.453125 L 336.078125 211.59375 L 344.921875 220.429688 L 364.179688 201.171875 C 366.050781 199.300781 366.539062 196.457031 365.40625 194.070312 L 355.484375 173.195312 L 361.570312 158.503906 L 383.34375 150.761719 C 385.835938 149.875 387.5 147.515625 387.5 144.871094 L 387.5 117.628906 C 387.5 114.984375 385.835938 112.628906 383.34375 111.742188 Z M 383.34375 111.742188 "/>
<path style=" stroke:none;fill-rule:nonzero;fill:rgb(0%,0%,0%);fill-opacity:1;" d="M 275 175 C 257.152344 175.050781 241.078125 164.21875 234.429688 147.65625 L 222.839844 152.34375 C 231.640625 174.09375 253.019531 188.097656 276.472656 187.476562 C 299.929688 186.855469 320.535156 171.742188 328.171875 149.554688 C 335.808594 127.367188 328.871094 102.769531 310.765625 87.84375 C 292.660156 72.917969 267.191406 70.800781 246.871094 82.527344 L 253.128906 93.347656 C 269.058594 84.164062 289.03125 85.921875 303.113281 97.742188 C 317.195312 109.566406 322.382812 128.933594 316.09375 146.210938 C 309.808594 163.488281 293.386719 174.992188 275 175 Z M 275 175 "/>
<path style=" stroke:none;fill-rule:nonzero;fill:rgb(0%,0%,0%);fill-opacity:1;" d="M 345.894531 237.5 L 325 237.5 L 325 212.5 C 325 202.144531 316.605469 193.75 306.25 193.75 C 295.894531 193.75 287.5 202.144531 287.5 212.5 L 287.5 266.160156 L 283.304688 261.964844 C 275.683594 254.34375 263.332031 254.34375 255.714844 261.964844 C 248.09375 269.582031 248.09375 281.933594 255.714844 289.554688 L 287.5 321.339844 L 287.5 331.25 L 281.25 331.25 C 277.796875 331.25 275 334.046875 275 337.5 L 275 393.75 L 287.5 393.75 L 287.5 343.75 L 362.5 343.75 L 362.5 393.75 L 375 393.75 L 375 337.5 C 375 334.046875 372.203125 331.25 368.75 331.25 L 362.5 331.25 L 362.5 321.339844 L 375.3125 308.527344 C 387.210938 296.628906 390.773438 278.730469 384.332031 263.183594 C 377.894531 247.636719 362.722656 237.5 345.894531 237.5 Z M 366.476562 299.6875 L 351.832031 314.332031 C 350.660156 315.503906 350 317.09375 350 318.75 L 350 331.25 L 300 331.25 L 300 318.75 C 300 317.09375 299.339844 315.503906 298.167969 314.332031 L 264.554688 280.714844 C 262.757812 278.949219 262.046875 276.355469 262.691406 273.921875 C 263.335938 271.484375 265.234375 269.585938 267.671875 268.941406 C 270.105469 268.296875 272.699219 269.007812 274.464844 270.804688 L 289.332031 285.667969 C 291.117188 287.457031 293.804688 287.992188 296.140625 287.023438 C 298.476562 286.058594 300 283.777344 300 281.25 L 300 212.5 C 300 209.046875 302.796875 206.25 306.25 206.25 C 309.703125 206.25 312.5 209.046875 312.5 212.5 L 312.5 243.75 C 312.5 247.203125 315.296875 250 318.75 250 L 345.894531 250 C 357.667969 250 368.28125 257.089844 372.785156 267.96875 C 377.289062 278.84375 374.800781 291.363281 366.476562 299.6875 Z M 366.476562 299.6875 "/>
<path style=" stroke:none;fill-rule:nonzero;fill:rgb(0%,0%,0%);fill-opacity:1;" d="M 337.5 356.25 L 350 356.25 L 350 368.75 L 337.5 368.75 Z M 337.5 356.25 "/>
</g>
</svg>
