<?xml version="1.0" encoding="UTF-8"?>
<svg xmlns="http://www.w3.org/2000/svg" xmlns:xlink="http://www.w3.org/1999/xlink" width="400pt" height="400pt" viewBox="0 0 400 400" version="1.1">
<g id="surface1">
<path style=" stroke:none;fill-rule:nonzero;fill:rgb(0%,0%,0%);fill-opacity:1;" d="M 380 180 L 379.734375 180 C 377.203125 106.089844 329.519531 41.328125 259.691406 16.972656 C 258.203125 7.238281 249.847656 0.0390625 240 0 L 160 0 C 150.152344 0.0390625 141.796875 7.238281 140.308594 16.972656 C 70.480469 41.328125 22.796875 106.089844 20.265625 180 L 20 180 C 8.953125 180 0 188.953125 0 200 L 0 213.332031 C 0 224.378906 8.953125 233.332031 20 233.332031 L 380 233.332031 C 391.046875 233.332031 400 224.378906 400 213.332031 L 400 200 C 400 188.953125 391.046875 180 380 180 Z M 140 31.273438 L 140 146.667969 C 140 150.347656 142.984375 153.332031 146.667969 153.332031 C 150.347656 153.332031 153.332031 150.347656 153.332031 146.667969 L 153.332031 20 C 153.332031 16.316406 156.316406 13.332031 160 13.332031 L 193.332031 13.332031 L 193.332031 160 C 193.332031 163.683594 196.316406 166.667969 200 166.667969 C 203.683594 166.667969 206.667969 163.683594 206.667969 160 L 206.667969 13.332031 L 240 13.332031 C 243.683594 13.332031 246.667969 16.316406 246.667969 20 L 246.667969 146.667969 C 246.667969 150.347656 249.652344 153.332031 253.332031 153.332031 C 257.015625 153.332031 260 150.347656 260 146.667969 L 260 31.273438 C 322.058594 55.054688 363.933594 113.585938 366.398438 180 L 33.601562 180 C 36.066406 113.585938 77.941406 55.054688 140 31.273438 Z M 386.667969 213.332031 C 386.667969 217.015625 383.683594 220 380 220 L 20 220 C 16.316406 220 13.332031 217.015625 13.332031 213.332031 L 13.332031 200 C 13.332031 196.316406 16.316406 193.332031 20 193.332031 L 380 193.332031 C 383.683594 193.332031 386.667969 196.316406 386.667969 200 Z M 386.667969 213.332031 "/>
<path style=" stroke:none;fill-rule:nonzero;fill:rgb(0%,0%,0%);fill-opacity:1;" d="M 166.667969 293.332031 L 80 293.332031 C 68.953125 293.332031 60 302.289062 60 313.332031 L 60 340 C 60 343.683594 62.984375 346.667969 66.667969 346.667969 C 70.347656 346.667969 73.332031 343.683594 73.332031 340 L 73.332031 313.332031 C 73.332031 309.652344 76.316406 306.667969 80 306.667969 L 166.667969 306.667969 C 170.347656 306.667969 173.332031 303.683594 173.332031 300 C 173.332031 296.316406 170.347656 293.332031 166.667969 293.332031 Z M 166.667969 293.332031 "/>
<path style=" stroke:none;fill-rule:nonzero;fill:rgb(0%,0%,0%);fill-opacity:1;" d="M 393.332031 293.332031 L 366 293.332031 C 362.8125 277.824219 349.167969 266.6875 333.332031 266.667969 L 66.667969 266.667969 C 48.265625 266.6875 33.355469 281.601562 33.332031 300 L 6.667969 300 C 2.984375 300 0 302.984375 0 306.667969 L 0 360 C 0 363.683594 2.984375 366.667969 6.667969 366.667969 L 35.332031 366.667969 C 41.242188 386.414062 59.390625 399.957031 80 400 L 120 400 C 150.507812 399.914062 178.746094 383.878906 194.453125 357.726562 C 196.367188 354.664062 200.402344 353.730469 203.464844 355.644531 C 204.308594 356.171875 205.019531 356.882812 205.546875 357.726562 C 221.253906 383.878906 249.492188 399.914062 280 400 L 320 400 C 343.175781 399.972656 362.824219 382.9375 366.132812 360 L 393.332031 360 C 397.015625 360 400 357.015625 400 353.332031 L 400 300 C 400 296.316406 397.015625 293.332031 393.332031 293.332031 Z M 33.332031 353.332031 L 13.332031 353.332031 L 13.332031 333.332031 L 33.332031 333.332031 Z M 33.332031 320 L 13.332031 320 L 13.332031 313.332031 L 33.332031 313.332031 Z M 353.332031 353.332031 C 353.3125 371.734375 338.398438 386.644531 320 386.667969 L 280 386.667969 C 254.179688 386.589844 230.28125 373.019531 216.988281 350.886719 C 211.308594 341.496094 199.09375 338.488281 189.707031 344.167969 C 186.957031 345.828125 184.648438 348.136719 182.988281 350.886719 C 169.699219 373.011719 145.808594 386.582031 120 386.667969 L 80 386.667969 C 61.601562 386.644531 46.6875 371.734375 46.667969 353.332031 L 46.667969 300 C 46.667969 288.953125 55.621094 280 66.667969 280 L 333.332031 280 C 344.378906 280 353.332031 288.953125 353.332031 300 Z M 386.667969 346.667969 L 366.667969 346.667969 L 366.667969 326.667969 L 386.667969 326.667969 Z M 386.667969 313.332031 L 366.667969 313.332031 L 366.667969 306.667969 L 386.667969 306.667969 Z M 386.667969 313.332031 "/>
<path style=" stroke:none;fill-rule:nonzero;fill:rgb(0%,0%,0%);fill-opacity:1;" d="M 206.667969 293.332031 L 193.332031 293.332031 C 189.652344 293.332031 186.667969 296.316406 186.667969 300 C 186.667969 303.683594 189.652344 306.667969 193.332031 306.667969 L 206.667969 306.667969 C 210.347656 306.667969 213.332031 303.683594 213.332031 300 C 213.332031 296.316406 210.347656 293.332031 206.667969 293.332031 Z M 206.667969 293.332031 "/>
</g>
</svg>
