<?xml version="1.0" encoding="UTF-8" standalone="no"?>
<!-- Created with Inkscape (http://www.inkscape.org/) -->

<svg
   xmlns:dc="http://purl.org/dc/elements/1.1/"
   xmlns:cc="http://creativecommons.org/ns#"
   xmlns:rdf="http://www.w3.org/1999/02/22-rdf-syntax-ns#"
   xmlns:svg="http://www.w3.org/2000/svg"
   xmlns="http://www.w3.org/2000/svg"
   xmlns:sodipodi="http://sodipodi.sourceforge.net/DTD/sodipodi-0.dtd"
   xmlns:inkscape="http://www.inkscape.org/namespaces/inkscape"
   width="210mm"
   height="297mm"
   viewBox="0 0 210 297"
   version="1.1"
   id="svg8"
   sodipodi:docname="affordable.svg"
   inkscape:version="0.92.4 (5da689c313, 2019-01-14)">
  <defs
     id="defs2" />
  <sodipodi:namedview
     id="base"
     pagecolor="#ffffff"
     bordercolor="#666666"
     borderopacity="1.0"
     inkscape:pageopacity="0.0"
     inkscape:pageshadow="2"
     inkscape:zoom="0.57233607"
     inkscape:cx="367.47627"
     inkscape:cy="234.79564"
     inkscape:document-units="mm"
     inkscape:current-layer="layer1"
     showgrid="false"
     inkscape:window-width="958"
     inkscape:window-height="991"
     inkscape:window-x="952"
     inkscape:window-y="0"
     inkscape:window-maximized="0" />
  <metadata
     id="metadata5">
    <rdf:RDF>
      <cc:Work
         rdf:about="">
        <dc:format>image/svg+xml</dc:format>
        <dc:type
           rdf:resource="http://purl.org/dc/dcmitype/StillImage" />
        <dc:title></dc:title>
      </cc:Work>
    </rdf:RDF>
  </metadata>
  <g
     inkscape:label="Layer 1"
     inkscape:groupmode="layer"
     id="layer1">
    <g
       id="surface1"
       transform="matrix(0.35277776,0,0,0.35277776,40.393268,153.86553)"
       style="fill:#ffff00">
      <path
         id="path417"
         d="m 399.91406,239.44141 c 0,-53.09375 -21.87109,-122.51953 -82.74219,-147.437504 V 65.402344 l 18.10157,-14.476563 c 1.63281,-1.308593 2.58593,-3.292969 2.58593,-5.386719 V 6.925781 c 0,-3.808593 -3.08593,-6.894531 -6.89453,-6.894531 h -20.6875 c -1.82812,0 -3.58203,0.730469 -4.87109,2.019531 l -8.91797,8.917969 -8.91406,-8.917969 c -1.29688,-1.289062 -3.04688,-2.019531 -4.875,-2.019531 h -27.58203 c -1.82813,0 -3.58203,0.730469 -4.875,2.019531 l -8.91407,8.917969 -8.91406,-8.917969 c -1.29687,-1.289062 -3.04687,-2.019531 -4.875,-2.019531 h -20.6875 c -3.80469,0 -6.89453,3.085938 -6.89453,6.894531 v 38.613281 c 0,2.09375 0.95313,4.078126 2.58594,5.386719 l 18.09765,14.476563 V 92.003906 C 159.77344,116.92188 137.90234,186.375 137.90234,239.44141 c -0.1289,12.44921 1.80469,24.83593 5.72266,36.65234 -2.96484,-0.16406 -5.94922,-0.26172 -8.92969,-0.26172 h -17.48047 c 0,-3.80469 -3.08593,-6.89453 -6.89453,-6.89453 H 55.160156 c -3.808594,0 -6.894531,3.08984 -6.894531,6.89453 H 0 V 289.625 h 48.265625 v 68.94922 H 0 v 13.79297 h 48.265625 c 0,3.80468 3.085937,6.89453 6.894531,6.89453 h 55.160154 c 3.8086,0 6.89453,-3.08985 6.89453,-6.89453 v -2.62891 l 51.48047,21.375 c 28.0625,11.46094 59.4375,11.80859 87.7461,0.97266 l 106.51562,-40.61719 c 6.30859,-2.39844 11.38672,-7.23828 14.08594,-13.42969 4.14453,-9.23828 2.38672,-20.05859 -4.46485,-27.51562 18.55469,-18.88672 28.45704,-44.625 27.33594,-71.08203 z M 103.42578,365.46875 H 62.054688 V 282.73047 H 103.42578 Z M 213.75,42.230469 V 13.820312 h 10.93359 l 11.76953,11.773438 c 2.69141,2.691406 7.05469,2.691406 9.75,0 l 11.76954,-11.773438 h 21.87109 l 11.76953,11.773438 c 2.69141,2.691406 7.05469,2.691406 9.75,0 l 11.76953,-11.773438 h 10.9375 v 28.410157 l -16.21094,12.960937 h -77.91406 z m 89.63281,26.75 v 20.6875 h -68.94922 v -20.6875 z m 61.01563,263.503901 c -1.21875,2.81641 -3.51953,5.02344 -6.38282,6.11719 L 251.5,379.21094 c -25.02734,9.58984 -52.76953,9.28906 -77.58594,-0.83203 L 117.21484,354.80469 V 289.625 h 17.48047 c 22.86328,0.0273 45.40625,5.34766 65.8711,15.54687 6.7539,3.3711 14.19921,5.13282 21.75,5.13672 h 53.48437 c 5.71484,0.0352 10.3125,4.69532 10.27734,10.41016 -0.0312,4.78516 -3.33984,8.92187 -8,10.00781 -0.90234,0.082 -1.78515,0.26563 -2.70312,0.26563 h -82.3125 v 13.79297 h 82.3125 c 0.14844,0 0.28516,0 0.42578,0 0.14063,0 0.26953,-0.0391 0.41797,-0.0391 5.46875,-0.0898 10.875,-1.23828 15.91016,-3.375 l 57.65234,-24.46875 c 2.74609,-1.17187 5.85156,-1.17187 8.59766,0 2.85546,1.20313 5.09765,3.52344 6.20703,6.41797 1.17187,2.95703 1.10156,6.25781 -0.1875,9.16406 z m -4.10938,-29.375 c -5.27344,-1.41406 -10.86719,-1.02343 -15.90234,1.09766 l -44.70703,18.98438 c 0.13281,-0.84375 0.21484,-1.6875 0.25781,-2.53907 0,-13.32812 -10.80469,-24.13281 -24.13672,-24.13281 h -53.48437 c -5.41016,-0.008 -10.7461,-1.26953 -15.58594,-3.68359 -14.96875,-7.4375 -30.9961,-12.51563 -47.51563,-15.04297 -5.15234,-12.1211 -7.71484,-25.1836 -7.52343,-38.35156 0,-49.64454 20.27734,-114.8125 77.22265,-135.98438 h 79.98438 c 56.94531,21.17188 77.22656,86.33984 77.22656,135.98438 1.16016,23.98828 -8.28906,47.26953 -25.83594,63.66796 z m 0,0"
         style="fill:#ffff00;fill-opacity:1;fill-rule:nonzero;stroke:none"
         inkscape:connector-curvature="0" />
      <path
         id="path419"
         d="m 75.84375,337.89062 h 13.792969 v 13.78907 H 75.84375 Z m 0,0"
         style="fill:#ffff00;fill-opacity:1;fill-rule:nonzero;stroke:none"
         inkscape:connector-curvature="0" />
      <path
         id="path421"
         d="m 283.55469,197.60156 -24.92578,-8.30859 c -2.69141,-0.87891 -4.15625,-3.77344 -3.27344,-6.46094 0.6914,-2.11328 2.66406,-3.53516 4.88672,-3.52734 h 17.33203 c 2.83203,0 5.125,2.30078 5.125,5.1289 v 4.52344 h 13.78906 v -4.52344 c -0.008,-10.44531 -8.46875,-18.91015 -18.91406,-18.92187 h -1.77344 v -13.78906 h -13.78906 v 13.78906 h -1.76953 c -10.44532,-0.004 -18.92188,8.45703 -18.92578,18.90234 -0.008,8.15235 5.21093,15.38672 12.94531,17.96094 l 24.92969,8.30469 c 2.68359,0.88281 4.15234,3.78125 3.26953,6.46875 -0.69141,2.10937 -2.66407,3.53515 -4.88672,3.52343 h -17.33203 c -2.83203,-0.004 -5.125,-2.29687 -5.125,-5.1289 v -4.52344 h -13.78907 v 4.52344 c 0.008,10.4414 8.46875,18.91015 18.91407,18.92187 h 1.76953 v 13.78907 h 13.78906 v -13.78907 h 1.77344 c 10.44922,0.004 18.91797,-8.45312 18.92969,-18.90234 0.004,-8.14844 -5.21485,-15.38672 -12.94922,-17.96094 z m 0,0"
         style="fill:#ffff00;fill-opacity:1;fill-rule:nonzero;stroke:none"
         inkscape:connector-curvature="0" />
      <path
         id="path423"
         d="m 268.91016,124.14063 c -41.89063,0 -75.84766,33.95703 -75.84766,75.84765 0.0508,41.86719 33.98047,75.79688 75.84766,75.84375 41.88671,0 75.84375,-33.95703 75.84375,-75.84375 0,-41.89062 -33.95704,-75.84765 -75.84375,-75.84765 z m 0,137.90624 c -34.27344,0 -62.0586,-27.78906 -62.0586,-62.05859 0.0391,-34.25781 27.80078,-62.01953 62.0586,-62.05469 34.26953,0 62.05468,27.78125 62.05468,62.05469 0,34.27344 -27.78515,62.05859 -62.05468,62.05859 z m 0,0"
         style="fill:#ffff00;fill-opacity:1;fill-rule:nonzero;stroke:none"
         inkscape:connector-curvature="0" />
    </g>
  </g>
</svg>
