<?xml version="1.0" encoding="UTF-8" standalone="no"?>
<!-- Created with Inkscape (http://www.inkscape.org/) -->

<svg
   xmlns:dc="http://purl.org/dc/elements/1.1/"
   xmlns:cc="http://creativecommons.org/ns#"
   xmlns:rdf="http://www.w3.org/1999/02/22-rdf-syntax-ns#"
   xmlns:svg="http://www.w3.org/2000/svg"
   xmlns="http://www.w3.org/2000/svg"
   xmlns:sodipodi="http://sodipodi.sourceforge.net/DTD/sodipodi-0.dtd"
   xmlns:inkscape="http://www.inkscape.org/namespaces/inkscape"
   width="210mm"
   height="297mm"
   viewBox="0 0 210 297"
   version="1.1"
   id="svg8"
   sodipodi:docname="productivity.svg"
   inkscape:version="0.92.4 (5da689c313, 2019-01-14)">
  <defs
     id="defs2" />
  <sodipodi:namedview
     id="base"
     pagecolor="#ffffff"
     bordercolor="#666666"
     borderopacity="1.0"
     inkscape:pageopacity="0.0"
     inkscape:pageshadow="2"
     inkscape:zoom="0.57233607"
     inkscape:cx="367.47627"
     inkscape:cy="234.79564"
     inkscape:document-units="mm"
     inkscape:current-layer="layer1"
     showgrid="false"
     inkscape:window-width="958"
     inkscape:window-height="991"
     inkscape:window-x="952"
     inkscape:window-y="0"
     inkscape:window-maximized="0" />
  <metadata
     id="metadata5">
    <rdf:RDF>
      <cc:Work
         rdf:about="">
        <dc:format>image/svg+xml</dc:format>
        <dc:type
           rdf:resource="http://purl.org/dc/dcmitype/StillImage" />
        <dc:title></dc:title>
      </cc:Work>
    </rdf:RDF>
  </metadata>
  <g
     inkscape:label="Layer 1"
     inkscape:groupmode="layer"
     id="layer1">
    <g
       id="layer1-7"
       inkscape:label="Layer 1"
       transform="translate(42.948136,36.551438)">
      <g
         transform="matrix(0.35277776,0,0,0.35277776,-12.725322,118.87872)"
         id="surface1">
        <path
           inkscape:connector-curvature="0"
           style="fill:#000000;fill-opacity:1;fill-rule:nonzero;stroke:none"
           d="m 62.1875,202.90625 20.871094,-9.92188 14.695312,6.08594 7.742184,21.77344 c 0.88672,2.49219 3.24219,4.15625 5.88282,4.15625 h 27.24218 c 2.64453,0 5,-1.66406 5.88672,-4.15625 l 7.74219,-21.77344 14.69531,-6.08594 20.8711,9.92188 c 2.39062,1.13281 5.23437,0.64062 7.10156,-1.22656 l 19.26172,-19.25782 c 1.87109,-1.87109 2.35937,-4.71484 1.22656,-7.10156 l -9.92188,-20.875 6.08594,-14.6914 21.77344,-7.74219 C 235.83594,131.125 237.5,128.76562 237.5,126.12109 V 98.878906 c 0,-2.644531 -1.66406,-5 -4.15625,-5.886718 L 211.57031,85.25 205.48437,70.554688 215.40625,49.683594 c 1.13672,-2.390625 0.64453,-5.234375 -1.22656,-7.105469 L 194.92187,23.320312 c -1.87109,-1.871093 -4.71484,-2.359374 -7.10156,-1.226562 l -20.875,9.921875 -14.6914,-6.085937 -7.7461,-21.773438 C 143.62109,1.664062 141.26562,0 138.62109,0 h -27.24218 c -2.64453,0 -5,1.664062 -5.88672,4.15625 L 97.75,25.929688 83.054688,32.015625 62.1875,22.09375 c -2.390625,-1.136719 -5.238281,-0.648438 -7.109375,1.226562 L 35.820312,42.578125 c -1.875,1.871094 -2.363281,4.71875 -1.226562,7.109375 L 44.515625,70.558594 38.429688,85.253906 16.65625,92.992188 C 14.164062,93.878906 12.5,96.234375 12.5,98.878906 v 27.242184 c 0,2.64453 1.664062,5 4.15625,5.88672 l 21.773438,7.74219 6.085937,14.69531 -9.921875,20.8711 c -1.136719,2.39062 -0.644531,5.23437 1.226562,7.10546 l 19.257813,19.25782 c 1.871094,1.87109 4.71875,2.36328 7.109375,1.22656 z m -5.058594,-50.67969 -8.214844,-19.82422 c -0.675781,-1.63281 -2.011718,-2.90625 -3.679687,-3.49609 L 25,121.70703 V 103.29297 L 45.234375,96.09375 C 46.902344,95.5 48.238281,94.230469 48.914062,92.597656 L 57.128906,72.773438 C 57.804688,71.140625 57.757812,69.292969 57,67.695312 l -9.21875,-19.398437 13.019531,-13.019531 19.398438,9.21875 c 1.597656,0.761718 3.441406,0.808594 5.078125,0.128906 l 19.824216,-8.210938 c 1.63282,-0.679687 2.90235,-2.015624 3.49219,-3.679687 L 115.79297,12.5 h 18.41406 l 7.19922,20.234375 c 0.59375,1.667969 1.86328,3.003906 3.49609,3.679687 l 19.82422,8.214844 c 1.63281,0.679688 3.48047,0.632813 5.07813,-0.128906 l 19.39843,-9.21875 13.02344,13.023438 -9.21875,19.394531 c -0.76172,1.601562 -0.80859,3.445312 -0.1289,5.078125 l 8.21093,19.828125 c 0.67578,1.628906 2.01172,2.898437 3.67578,3.488281 L 225,103.28906 v 18.41797 l -20.23438,7.19922 c -1.66796,0.59375 -3.0039,1.86328 -3.67968,3.49609 l -8.21485,19.82422 c -0.67578,1.63281 -0.6289,3.48047 0.12891,5.07813 l 9.21875,19.39843 -13.02344,13.02344 -19.39453,-9.21875 c -1.59766,-0.76172 -3.44531,-0.80859 -5.07812,-0.1289 l -19.82813,8.21093 c -1.62891,0.67578 -2.89844,2.01172 -3.48828,3.67578 L 134.20703,212.5 h -18.41406 l -7.19922,-20.23438 c -0.59375,-1.66796 -1.86328,-3.0039 -3.49609,-3.67968 l -19.824222,-8.21485 c -1.632813,-0.67968 -3.480469,-0.63281 -5.078126,0.12891 l -19.398437,9.21875 -13.019531,-13.01953 9.21875,-19.39844 c 0.761718,-1.59766 0.808594,-3.44141 0.132812,-5.07422 z m 0,0"
           id="path93" />
        <path
           inkscape:connector-curvature="0"
           style="fill:#000000;fill-opacity:1;fill-rule:nonzero;stroke:none"
           d="m 125,168.75 c 31.06641,0 56.25,-25.18359 56.25,-56.25 0,-31.066406 -25.18359,-56.25 -56.25,-56.25 -31.066406,0 -56.25,25.183594 -56.25,56.25 0.03516,31.05078 25.199219,56.21484 56.25,56.25 z m 0,-100 c 24.16406,0 43.75,19.585938 43.75,43.75 0,24.16406 -19.58594,43.75 -43.75,43.75 -24.16406,0 -43.75,-19.58594 -43.75,-43.75 C 81.27734,88.347656 100.84766,68.777344 125,68.75 Z m 0,0"
           id="path95" />
        <path
           inkscape:connector-curvature="0"
           style="fill:#000000;fill-opacity:1;fill-rule:nonzero;stroke:none"
           d="m 245.9375,301.15234 -8.21094,19.82422 c -0.67969,1.63281 -0.63281,3.48047 0.12891,5.07813 l 9.21875,19.39843 -13.02344,13.02344 -19.39844,-9.21875 c -1.59765,-0.76172 -3.4414,-0.80859 -5.07812,-0.1289 l -19.81641,8.20703 c -1.63281,0.67578 -2.90625,2.01172 -3.49609,3.67968 L 179.0625,381.25 h -18.41406 l -7.19922,-20.23438 c -0.58985,-1.66796 -1.85938,-3.0039 -3.4961,-3.67968 L 130.12891,349.125 c -1.63282,-0.67969 -3.48047,-0.63281 -5.07813,0.12891 l -19.39844,9.21875 -13.023434,-13.02344 9.218754,-19.39844 c 0.76172,-1.59766 0.80859,-3.44531 0.1289,-5.07812 L 93.765625,301.14844 C 93.089844,299.51562 91.753906,298.25 90.09375,297.65625 l -20.234375,-7.19531 v -18.41797 l 20.234375,-7.19922 c 1.664062,-0.58984 3.003906,-1.86328 3.679688,-3.49609 l 8.210942,-19.82422 c 0.67578,-1.63282 0.6289,-3.48047 -0.12891,-5.07813 l -11.117189,-23.38281 -11.285156,5.375 9.921875,20.87109 -6.085938,14.69532 -21.773437,7.74218 c -2.492187,0.88672 -4.15625,3.24219 -4.15625,5.88672 V 294.875 c 0,2.64453 1.664063,5 4.15625,5.88672 l 21.773437,7.74219 6.085938,14.69531 -9.921875,20.87109 c -1.136719,2.39063 -0.644531,5.23438 1.226563,7.10156 L 99.9375,370.42969 c 1.87109,1.87109 4.71484,2.35937 7.10156,1.22656 l 20.875,-9.92188 14.6875,6.08594 7.74219,21.77344 c 0.88672,2.49219 3.24609,4.15625 5.89453,4.15625 h 27.23828 c 2.64453,0 5.00391,-1.66406 5.88672,-4.15625 l 7.74609,-21.77344 14.69141,-6.08594 20.87109,9.92188 c 2.38672,1.13281 5.23438,0.64453 7.10157,-1.22656 l 19.26172,-19.25782 c 1.87109,-1.87109 2.36328,-4.71484 1.22656,-7.10156 l -9.92188,-20.875 7.14844,-17.25781 z m 0,0"
           id="path97" />
        <path
           inkscape:connector-curvature="0"
           style="fill:#000000;fill-opacity:1;fill-rule:nonzero;stroke:none"
           d="m 259.03516,211.32812 -19.26172,-19.25781 c -1.86719,-1.87109 -4.71485,-2.35937 -7.10157,-1.22656 l -23.3789,11.11719 5.36328,11.28906 19.39844,-9.21875 13.02343,13.02344 -9.21875,19.39453 c -0.76171,1.60156 -0.80859,3.44531 -0.1289,5.07812 l 7.08984,17.1211 11.54688,-4.78516 -6.02344,-14.55078 9.92187,-20.875 c 1.13672,-2.39063 0.64454,-5.23828 -1.23046,-7.10938 z m 0,0"
           id="path99" />
        <path
           inkscape:connector-curvature="0"
           style="fill:#000000;fill-opacity:1;fill-rule:nonzero;stroke:none"
           d="m 169.85547,337.5 c 31.0664,0 56.25,-25.18359 56.25,-56.25 0,-31.06641 -25.1836,-56.25 -56.25,-56.25 -31.06641,0 -56.25,25.18359 -56.25,56.25 0.0352,31.05078 25.19922,56.21484 56.25,56.25 z m 0,-100 c 24.16406,0 43.75,19.58594 43.75,43.75 0,24.16406 -19.58594,43.75 -43.75,43.75 -24.16016,0 -43.75,-19.58594 -43.75,-43.75 0.0273,-24.15234 19.59765,-43.72266 43.75,-43.75 z m 0,0"
           id="path101" />
        <path
           inkscape:connector-curvature="0"
           style="fill:#000000;fill-opacity:1;fill-rule:nonzero;stroke:none"
           d="M 383.34375,111.74219 361.57031,104 355.48437,89.304688 365.40625,68.433594 c 1.13672,-2.390625 0.64453,-5.234375 -1.22656,-7.105469 L 344.92187,42.070312 c -1.87109,-1.871093 -4.71484,-2.359374 -7.10156,-1.226562 l -20.875,9.921875 -14.6914,-6.085937 -7.74219,-21.773438 C 293.625,20.414062 291.26562,18.75 288.62109,18.75 h -27.24218 c -2.64454,0 -5,1.664062 -5.88672,4.15625 l -7.74219,21.773438 -17.26172,7.152343 4.78516,11.546875 19.82422,-8.214844 C 256.73047,54.488281 258,53.152344 258.59375,51.484375 L 265.78906,31.25 h 18.41797 l 7.19922,20.234375 c 0.59375,1.667969 1.86328,3.003906 3.49609,3.679687 l 19.82422,8.214844 c 1.63281,0.675782 3.48047,0.628906 5.07813,-0.128906 l 19.39843,-9.21875 13.02344,13.023438 -9.21875,19.394531 c -0.76172,1.601562 -0.80859,3.445312 -0.1289,5.078125 l 8.21093,19.828126 c 0.67578,1.62891 2.01172,2.89453 3.67578,3.48828 L 375,122.03906 v 18.41797 l -20.23438,7.19922 c -1.66796,0.59375 -3.0039,1.86328 -3.67968,3.49609 l -8.21485,19.82422 c -0.67578,1.63281 -0.6289,3.48047 0.12891,5.07813 l 9.21875,19.39843 -16.14063,16.14063 8.84375,8.83594 19.25782,-19.25782 c 1.87109,-1.87109 2.35937,-4.71484 1.22656,-7.10156 l -9.92188,-20.875 6.08594,-14.6914 21.77344,-7.74219 c 2.49219,-0.88672 4.15625,-3.2461 4.15625,-5.89063 v -27.24218 c 0,-2.64453 -1.66406,-5 -4.15625,-5.88672 z m 0,0"
           id="path103" />
        <path
           inkscape:connector-curvature="0"
           style="fill:#000000;fill-opacity:1;fill-rule:nonzero;stroke:none"
           d="m 275,175 c -17.84766,0.0508 -33.92188,-10.78125 -40.57031,-27.34375 l -11.58985,4.6875 c 8.80078,21.75 30.17969,35.75391 53.63282,35.13281 23.45703,-0.62109 44.0625,-15.73437 51.69921,-37.92187 7.63672,-22.1875 0.69922,-46.78516 -17.40625,-61.71094 -18.10546,-14.925781 -43.57421,-17.042969 -63.89453,-5.316406 l 6.25782,10.820312 c 15.92968,-9.183594 35.90234,-7.425781 49.98437,4.394532 14.08203,11.824222 19.26953,31.191402 12.98047,48.468752 C 309.80859,163.48828 293.38672,174.99219 275,175 Z m 0,0"
           id="path105" />
        <path
           inkscape:connector-curvature="0"
           style="fill:#000000;fill-opacity:1;fill-rule:nonzero;stroke:none"
           d="M 345.89453,237.5 H 325 v -25 c 0,-10.35547 -8.39453,-18.75 -18.75,-18.75 -10.35547,0 -18.75,8.39453 -18.75,18.75 v 53.66016 l -4.19531,-4.19532 c -7.6211,-7.62109 -19.97266,-7.62109 -27.58985,0 -7.62109,7.61719 -7.62109,19.96875 0,27.58985 L 287.5,321.33984 V 331.25 h -6.25 c -3.45313,0 -6.25,2.79687 -6.25,6.25 v 56.25 h 12.5 v -50 h 75 v 50 H 375 V 337.5 c 0,-3.45313 -2.79688,-6.25 -6.25,-6.25 h -6.25 v -9.91016 l 12.8125,-12.8125 c 11.89844,-11.89843 15.46094,-29.79687 9.01953,-45.34375 C 377.89453,247.63672 362.72266,237.5 345.89453,237.5 Z m 20.58203,62.1875 -14.64453,14.64453 C 350.66016,315.50391 350,317.09375 350,318.75 v 12.5 h -50 v -12.5 c 0,-1.65625 -0.66016,-3.24609 -1.83203,-4.41797 l -33.61328,-33.61719 c -1.79688,-1.76562 -2.50782,-4.35937 -1.86328,-6.79297 0.64453,-2.4375 2.54296,-4.33593 4.98046,-4.98046 2.4336,-0.64454 5.02735,0.0664 6.79297,1.86328 l 14.86719,14.86328 c 1.78516,1.78906 4.47266,2.32422 6.80859,1.35547 C 298.47656,286.05859 300,283.77734 300,281.25 V 212.5 c 0,-3.45313 2.79687,-6.25 6.25,-6.25 3.45312,0 6.25,2.79687 6.25,6.25 v 31.25 c 0,3.45312 2.79687,6.25 6.25,6.25 h 27.14453 c 11.77344,0 22.38672,7.08984 26.89063,17.96875 4.5039,10.875 2.01562,23.39453 -6.3086,31.71875 z m 0,0"
           id="path107" />
        <path
           inkscape:connector-curvature="0"
           style="fill:#000000;fill-opacity:1;fill-rule:nonzero;stroke:none"
           d="M 337.5,356.25 H 350 v 12.5 h -12.5 z m 0,0"
           id="path109" />
      </g>
      <path
         transform="scale(0.26458333)"
         inkscape:connector-curvature="0"
         id="path130"
         d="m 95.093017,746.58455 c -1.495386,-1.51994 -3.38365,-5.95486 -7.278615,-17.09513 l -5.259393,-15.04276 -9.647828,-3.97629 c -5.306307,-2.18697 -9.900257,-3.97629 -10.208779,-3.97629 -0.308521,0 -7.00035,3.05357 -14.870728,6.78571 -16.536077,7.84142 -17.927795,8.1091 -22.181349,4.26627 -4.520552,-4.08404 -25.82871345,-25.51316 -26.9238292,-27.07666 -1.9535235,-2.78904 -1.1140928,-5.72555 5.7798636,-20.21923 3.7321429,-7.84636 6.7857146,-14.63524 6.7857146,-15.0864 0,-0.77114 -7.495786,-19.28734 -7.9865067,-19.72838 -0.1252786,-0.1126 -6.3349222,-2.3713 -13.7992083,-5.01934 -7.464285,-2.64803 -14.63023,-5.29997 -15.924322,-5.89318 -4.278704,-1.96137 -4.43282,-2.86202 -4.43282,-25.90541 v -20.80471 l 1.964285,-1.93375 c 1.409806,-1.38788 6.24613,-3.43742 17.13302,-7.26064 l 15.1687331,-5.32689 3.9384093,-9.55592 c 2.166125,-5.25575 3.9367446,-9.91909 3.9347096,-10.36297 -0.002,-0.4439 -3.055606,-7.23499 -6.7857146,-15.09133 -3.73010785,-7.85634 -6.7820143,-15.1848 -6.7820143,-16.28547 0,-1.10067 0.4547143,-2.86919 1.0104772,-3.93003 0.55576211,-1.06085 7.2593664,-8.11632 14.8968977,-15.67882 17.283347,-17.11355 14.330992,-16.52772 34.601597,-6.86598 l 14.442864,6.88401 9.9393,-4.13049 9.939307,-4.13049 5.620493,-15.73081 c 4.644029,-12.99785 5.970564,-15.98915 7.6355,-17.21781 1.902657,-1.40409 3.077507,-1.49954 21.071429,-1.71195 20.15202,-0.23788 23.06508,0.0909 25.61786,2.89151 0.81173,0.89054 3.83902,8.31967 6.7273,16.50919 6.00344,17.02235 4.13804,14.88564 17.81918,20.4109 l 7.53649,3.04368 14.4693,-6.85088 c 11.02668,-5.22088 15.17201,-6.85088 17.4228,-6.85088 2.88189,0 3.29844,0.34204 17.18016,14.10715 14.04305,13.92508 16.70362,17.35526 15.8304,20.40957 -0.24447,0.85509 -3.49044,7.99674 -7.21327,15.87033 l -6.76878,14.31562 4.14606,9.95373 4.14606,9.95372 13.57143,4.80928 c 16.92762,5.9986 17.90066,6.4603 19.64508,9.32138 1.32491,2.17303 1.42119,3.62443 1.42368,21.46074 0.003,20.38303 -0.32981,22.73515 -3.53261,24.97849 -0.84884,0.59454 -8.21885,3.43837 -16.37782,6.31961 l -14.83448,5.23863 -4.10206,9.98885 -4.10207,9.98886 6.7962,14.32059 c 3.7379,7.87633 6.98764,15.02022 7.22163,15.87531 0.84527,3.08896 -1.79895,6.48815 -15.8766,20.40957 -17.46564,17.27181 -14.88814,16.60261 -32.10055,8.33425 -18.86363,-9.06156 -15.82565,-8.58163 -26.47447,-4.18236 -5.01298,2.07098 -9.49958,4.11349 -9.97023,4.5389 -0.47066,0.42543 -2.6066,5.75564 -4.74654,11.84493 -6.09626,17.34715 -6.86894,19.15938 -8.82501,20.69802 -1.75033,1.37681 -2.83855,1.44483 -23.1141,1.44483 H 97.112252 Z m 40.493393,-26.34047 c 5.62183,-15.8554 6.46991,-17.56201 9.41604,-18.94798 10.28545,-4.83867 29.02874,-11.9838 30.62344,-11.67397 1.0108,0.19639 7.64088,3.10863 14.73352,6.47165 7.09264,3.36302 13.18116,6.11458 13.53004,6.11458 0.3489,0 4.53588,-3.9375 9.30443,-8.75 l 8.67008,-8.75 -6.4308,-13.50815 c -3.84712,-8.08103 -6.42631,-14.39451 -6.41963,-15.71428 0.0149,-2.93928 11.44847,-30.38587 13.41599,-32.2054 0.85005,-0.78613 7.85168,-3.64753 15.55919,-6.35868 l 14.01365,-4.92935 v -12.66097 -12.66097 l -11.60714,-4.08838 c -15.21131,-5.35789 -17.88208,-6.53475 -19.0409,-8.39033 -2.57045,-4.11595 -12.20671,-28.78386 -12.17838,-31.17551 0.0206,-1.74549 2.09624,-6.91514 6.34677,-15.80798 l 6.31604,-13.21428 -8.65748,-8.75 c -4.76161,-4.8125 -9.0239,-8.75 -9.47175,-8.75 -0.44785,0 -6.55982,2.76668 -13.58215,6.14818 -8.1792,3.93857 -13.66635,6.1655 -15.26787,6.19639 -2.99918,0.0578 -29.46061,-10.87454 -31.92482,-13.18955 -1.69856,-1.59571 -1.90566,-2.09244 -8.0604,-19.3336 l -3.76103,-10.53571 -12.59116,0.007 -12.59116,0.007 -4.9433,14.0231 c -2.718813,7.71271 -5.61167,14.76424 -6.42857,15.67007 -1.825165,2.02386 -29.173043,13.42431 -32.199558,13.42296 -1.226178,-5.4e-4 -7.948471,-2.77684 -15.714285,-6.48998 l -13.571429,-6.48902 -8.75,8.66339 c -4.8125,4.76487 -8.75,8.90175 -8.75,9.19305 0,0.29131 2.892857,6.66951 6.428571,14.17378 3.535715,7.50426 6.428572,14.29325 6.428572,15.08663 0,2.56794 -12.266092,31.29633 -13.914042,32.58804 -0.852382,0.66813 -7.8739953,3.46004 -15.603586,6.20426 l -14.053801,4.9895 0.0015,12.5105 0.0015,12.51051 14.024411,4.93943 c 7.7134264,2.71668 14.789472,5.60954 15.724547,6.42857 1.782508,1.56129 13.778681,29.55671 13.805113,32.21693 0.0079,0.79315 -2.108949,5.936 -4.704065,11.42858 -2.595116,5.49257 -5.547456,11.8506 -6.560754,14.12895 l -1.842361,4.14245 8.513874,8.53612 c 4.682661,4.69486 8.8787,8.53611 9.324562,8.53611 0.445863,0 6.876666,-2.89286 14.290673,-6.42857 7.414015,-3.53571 14.076743,-6.42857 14.806072,-6.42857 2.611078,0 31.219143,12.31636 32.55615,14.01608 0.714636,0.90851 3.511278,7.92683 6.214776,15.59627 l 4.91543,13.94443 12.58003,0.007 12.58002,0.007 z"
         style="fill:#ffff00;stroke-width:0.71428573" />
      <path
         transform="scale(0.26458333)"
         inkscape:connector-curvature="0"
         id="path132"
         d="m 307.00236,698.17037 c -24.77812,-4.88663 -44.38464,-19.18873 -54.90224,-40.04878 -1.23234,-2.44416 -2.24062,-4.72026 -2.24062,-5.05801 0,-0.59588 12.53556,-5.85788 13.94248,-5.85258 0.38521,10e-4 1.81293,2.15407 3.17271,4.78358 7.01303,13.56162 20.67053,24.48437 36.14782,28.90967 8.12289,2.32252 22.48511,2.3207 30.66556,-0.004 16.58839,-4.71379 29.7929,-15.57183 37.0641,-30.47773 4.89925,-10.04343 5.77976,-14.02383 5.7673,-26.07143 -0.0126,-12.15386 -0.9333,-16.35508 -5.7215,-26.10646 -9.2555,-18.84957 -27.6898,-31.07515 -48.6455,-32.26185 -10.86293,-0.61517 -19.47011,1.14988 -31.74846,6.51054 -0.88387,0.38589 -1.9815,-0.95773 -4.86761,-5.95849 -2.04952,-3.5512 -3.50716,-6.81147 -3.2392,-7.24504 0.26796,-0.43356 2.6191,-1.74591 5.22475,-2.91633 23.79445,-10.68807 51.96991,-8.15647 73.29517,6.58567 7.12837,4.92784 17.02588,15.44454 21.36533,22.70195 7.27265,12.16298 10.66212,24.61705 10.62687,39.04685 -0.0345,14.13294 -3.34695,26.09834 -10.62687,38.3871 -4.52828,7.64387 -17.07948,20.34527 -24.27692,24.5674 -13.50251,7.92081 -22.17463,10.36501 -37.78888,10.65062 -6.28572,0.11498 -12.23215,0.0506 -13.21429,-0.14311 z"
         style="fill:#ffff00;stroke-width:0.71428573" />
      <path
         transform="scale(0.26458333)"
         inkscape:connector-curvature="0"
         id="path134"
         d="m 406.10505,736.67971 -5.52865,-5.52864 10.6445,-10.72136 10.64449,-10.72135 -6.43152,-13.50815 c -3.84791,-8.08181 -6.42702,-14.39438 -6.42034,-15.71428 0.0149,-2.93928 11.44847,-30.38587 13.41599,-32.2054 0.85005,-0.78613 7.85168,-3.64753 15.55919,-6.35868 l 14.01365,-4.92935 v -12.66097 -12.66097 l -11.60714,-4.08838 c -15.21131,-5.35789 -17.88208,-6.53475 -19.0409,-8.39033 -2.57045,-4.11595 -12.20671,-28.78386 -12.17838,-31.17551 0.0206,-1.74549 2.09624,-6.91514 6.34677,-15.80798 l 6.31604,-13.21428 -8.65748,-8.75 c -4.76161,-4.8125 -9.0239,-8.75 -9.47175,-8.75 -0.44785,0 -6.55982,2.76668 -13.58215,6.14818 -8.1792,3.93857 -13.66635,6.1655 -15.26787,6.19639 -2.99918,0.0578 -29.46061,-10.87454 -31.92482,-13.18955 -1.69856,-1.59571 -1.90566,-2.09244 -8.0604,-19.3336 l -3.76103,-10.53571 -12.59116,0.002 -12.59116,0.002 -4.93943,14.02441 c -2.71669,7.71343 -5.60954,14.76908 -6.42857,15.67922 -0.866,0.96234 -7.20033,4.01053 -15.13723,7.2843 l -13.6481,5.62949 -2.95973,-7.16668 c -1.62785,-3.94168 -2.71836,-7.39274 -2.42334,-7.66903 0.29502,-0.27629 5.39901,-2.50605 11.3422,-4.95503 l 10.80581,-4.45269 5.62277,-15.73722 c 4.64607,-13.00362 5.97278,-15.99552 7.63777,-17.22423 1.90266,-1.40409 3.07751,-1.49954 21.07143,-1.71195 20.15104,-0.23787 23.06146,0.0906 25.62239,2.89151 0.81423,0.89054 3.84702,8.32248 6.73954,16.51543 6.01107,17.02616 4.14725,14.88989 17.80241,20.40466 l 7.53649,3.04368 14.4693,-6.85088 c 11.02668,-5.22088 15.17201,-6.85088 17.4228,-6.85088 2.88189,0 3.29844,0.34204 17.18016,14.10715 14.04305,13.92508 16.70362,17.35526 15.8304,20.40957 -0.24447,0.85509 -3.49044,7.99674 -7.21327,15.87033 l -6.76878,14.31562 4.14606,9.95373 4.14606,9.95372 13.57143,4.80928 c 16.92762,5.9986 17.90066,6.4603 19.64508,9.32138 1.32491,2.17303 1.42119,3.62443 1.42368,21.46074 0.003,20.38303 -0.32981,22.73515 -3.53261,24.97849 -0.84884,0.59454 -8.21885,3.43837 -16.37782,6.31961 l -14.83448,5.23863 -4.10206,9.98885 -4.10207,9.98886 6.7962,14.32059 c 3.7379,7.87633 6.98165,15.00135 7.20833,15.8334 0.22667,0.83203 0.067,2.43917 -0.35483,3.57142 -0.65605,1.7609 -26.08313,28.13006 -27.12508,28.13006 -0.20358,0 -2.85804,-2.48789 -5.89879,-5.52865 z"
         style="fill:#ffff00;stroke-width:0.71428573" />
      <path
         transform="scale(0.26458333)"
         inkscape:connector-curvature="0"
         id="path136"
         d="m 104.21994,672.5324 c -30.296178,-6.57215 -52.542768,-28.85342 -58.803795,-58.89547 -1.815487,-8.71118 -1.447992,-24.65811 0.748958,-32.5 5.418238,-19.34007 15.933324,-33.93347 31.993126,-44.40178 33.600061,-21.90163 78.835291,-12.89353 101.756921,20.26378 21.03694,30.431 16.80143,70.6067 -10.14731,96.25192 -10.52497,10.01587 -22.14552,16.16321 -35.97977,19.03353 -7.75232,1.60844 -22.7182,1.73397 -29.56813,0.24802 z m 25.04101,-15.62096 c 11.76383,-2.26956 22.70235,-8.0636 30.9483,-16.39304 27.99993,-28.28343 19.94248,-76.33347 -15.70689,-93.66696 -8.24588,-4.00933 -13.2587,-5.32439 -22.29985,-5.85013 -24.097744,-1.40127 -45.409879,10.89843 -55.930086,32.27848 -4.730024,9.61275 -5.96647,15.00377 -5.97956,26.07143 -0.01304,11.02321 1.192605,16.17818 6.181095,26.42857 3.26598,6.71096 4.406321,8.25542 10.839189,14.68044 5.922354,5.91512 8.322032,7.7601 13.617783,10.46996 12.615389,6.45536 25.472929,8.46173 38.330019,5.98125 z"
         style="fill:#ffff00;stroke-width:0.71428573" />
      <path
         transform="scale(0.26458333)"
         inkscape:connector-curvature="0"
         id="path140"
         d="m 274.11319,782.11555 c -2.51445,-6.18086 -4.57173,-12.45109 -4.57173,-13.93384 0,-1.48274 2.83325,-8.8003 6.29611,-16.26124 l 6.29611,-13.56535 -8.98393,-8.90408 -8.98394,-8.90408 -12.50992,5.86234 c -6.88046,3.2243 -12.77852,5.86235 -13.10679,5.86235 -0.83313,0 -6.49761,-12.98912 -5.91272,-13.55836 1.62122,-1.57785 32.02292,-15.01307 33.97213,-15.01307 2.32379,0 32.93295,29.87492 32.93295,32.14297 0,0.62775 -3.24487,8.21105 -7.21082,16.85176 l -7.21083,15.71038 3.70317,9.25035 c 2.03674,5.08768 3.50058,9.45292 3.25298,9.70052 -0.2476,0.24761 -3.36188,1.69829 -6.92061,3.22374 l -6.47043,2.77355 z"
         style="fill:#ffff00;stroke-width:1.42857146" />
      <path
         transform="scale(0.26458333)"
         inkscape:connector-curvature="0"
         id="path142"
         d="M 155.22276,894.73477 C 120.805,882.99933 99.207192,847.49319 105.19419,812.48934 c 2.67961,-15.66673 10.76744,-30.73485 22.27494,-41.49955 15.42546,-14.42976 31.21297,-20.63393 52.11379,-20.47968 20.26013,0.14952 36.79255,7.15126 51.35789,21.75088 28.74635,28.81401 28.65748,75.21098 -0.19935,104.06781 -14.86228,14.86228 -31.65676,21.68171 -53.245,21.62025 -9.56935,-0.0273 -15.39034,-0.86725 -22.2737,-3.21428 z m 33.0461,-12.4927 c 18.89974,-3.58426 34.6493,-15.54107 43.11096,-32.72915 4.32623,-8.78781 4.59021,-10.22952 4.59021,-25.06837 0,-14.75886 -0.28696,-16.35015 -4.58469,-25.42328 -17.74708,-37.46667 -68.05085,-45.05741 -95.99228,-14.48504 -11.82187,12.93502 -16.86177,27.77178 -15.39141,45.31019 1.62181,19.34498 14.42741,38.32636 31.53267,46.73999 13.3184,6.55098 23.63678,8.1396 36.73454,5.65566 z"
         style="fill:#ffff00;stroke-width:1.42857146" />
      <path
         transform="scale(0.26458333)"
         inkscape:connector-curvature="0"
         id="path144"
         d="m 319.54146,934.70022 c 0,-28.42857 0.46468,-39.46467 1.71429,-40.71428 0.94286,-0.94286 4.47857,-1.71429 7.85714,-1.71429 h 6.14286 v -7.38203 -7.38201 l -23.39323,-23.75346 c -21.25458,-21.58187 -23.52529,-24.37269 -24.83786,-30.52694 -3.3808,-15.85151 5.70255,-29.15436 20.90435,-30.61506 9.92578,-0.95374 13.66718,0.28959 20.8811,6.93915 l 6.24263,5.75426 0.45865,-39.83924 0.45864,-39.83924 3.83431,-5.79036 c 7.80524,-11.78703 22.24868,-14.81212 33.90172,-7.1005 8.70173,5.75853 10.61512,11.52725 11.28506,34.02351 l 0.58036,19.48808 20.19928,0.54258 c 19.1245,0.51372 20.70862,0.78225 29.77172,5.04678 23.24571,10.93796 35.81804,34.93732 31.17977,59.5192 -2.27309,12.04685 -7.96316,21.6321 -20.8463,35.11673 -10.38804,10.87305 -10.6202,11.27652 -10.6202,18.4573 v 7.34125 h 6.14286 c 3.37857,0 6.91428,0.77143 7.85714,1.71429 1.24961,1.24961 1.71428,12.28571 1.71428,40.71428 v 39 h -7.85714 -7.85714 V 940.1288 906.55737 h -50 -50 v 33.57143 33.57142 h -7.85714 -7.85715 z m 99.71477,-53.07707 0.42906,-9.93421 12.6546,-13.08093 c 14.43427,-14.92055 18.6469,-22.07148 19.66176,-33.3758 1.49153,-16.61374 -6.18427,-30.74337 -20.79929,-38.28736 l -9.05339,-4.6732 h -23.12874 c -31.60403,0 -29.47877,2.0657 -29.47877,-28.65243 0,-22.29995 -0.22484,-24.42955 -2.85714,-27.06185 -1.57143,-1.57143 -4.46429,-2.85715 -6.42857,-2.85715 -1.96429,0 -4.85714,1.28572 -6.42857,2.85715 -2.74654,2.74654 -2.85715,4.7619 -2.85715,52.06185 v 49.20471 l -3.175,2.22386 c -1.74626,1.22312 -4.05425,2.22386 -5.12888,2.22386 -1.07463,0 -7.94502,-5.78571 -15.26754,-12.85714 -14.40941,-13.9153 -17.21353,-15.0592 -22.92208,-9.35065 -6.98069,6.98068 -5.01286,10.2092 23.53922,38.61962 l 22.95428,22.8404 v 9.4215 c 0,5.18183 0.44013,9.86164 0.97807,10.39957 0.53793,0.53793 15.80579,0.80579 33.92857,0.59525 l 32.95051,-0.38283 z"
         style="fill:#ffff00;stroke-width:1.42857146" />
      <path
         transform="scale(0.26458333)"
         inkscape:connector-curvature="0"
         id="path146"
         d="m 402.39861,932.98594 v -7.85714 h 7.85714 7.85714 v 7.85714 7.85714 h -7.85714 -7.85714 z"
         style="fill:#ffff00;stroke-width:1.42857146" />
      <path
         transform="scale(0.26458333)"
         inkscape:connector-curvature="0"
         id="path148"
         d="m 155.53092,971.11825 c -1.42008,-1.42008 -4.69664,-8.65223 -7.28123,-16.07143 -2.5846,-7.4192 -5.31277,-14.23784 -6.06261,-15.15254 -0.74983,-0.91468 -5.47618,-3.30956 -10.50298,-5.32193 l -9.13965,-3.65885 -15.22125,7.10765 c -8.371687,3.9092 -16.037491,7.10765 -17.035119,7.10765 -3.03671,0 -32.175189,-29.8247 -32.175189,-32.93293 0,-1.55542 2.892857,-9.01859 6.428571,-16.5848 3.535715,-7.56623 6.428572,-14.61442 6.428572,-15.66266 0,-1.04824 -1.661356,-5.95138 -3.691902,-10.89586 l -3.691903,-8.98996 -13.808097,-4.7914 c -21.920195,-7.60629 -20.23667,-5.05107 -20.23667,-30.71469 0,-17.11982 0.441628,-22.30152 2.011782,-23.60464 1.10648,-0.91829 8.660052,-4.06672 16.785714,-6.9965 15.938933,-5.74692 16.529873,-6.31816 21.289977,-20.58033 1.67485,-5.01816 1.434142,-6.07434 -4.174903,-18.31862 -3.273724,-7.14638 -5.652931,-13.4777 -5.287127,-14.06958 0.879619,-1.42325 12.121479,-6.47025 12.750789,-5.72442 0.269477,0.31937 3.888578,7.79047 8.042447,16.60245 l 7.552489,16.02177 -6.179278,15.09476 c -3.398601,8.30212 -7.113007,15.87804 -8.254235,16.83537 -1.141228,0.95734 -8.254066,4.00616 -15.806308,6.77516 l -13.731347,5.03456 v 12.71147 12.71146 l 14.85577,5.37131 c 8.170673,2.95422 15.388782,6.21851 16.04024,7.25398 0.651459,1.03547 3.844579,8.48173 7.095823,16.54725 l 5.911353,14.66459 -6.872701,14.32966 -6.872702,14.32964 9.249665,9.24966 9.249664,9.24967 13.269055,-6.45819 c 7.29798,-3.552 14.35013,-6.45947 15.67144,-6.46104 3.79199,-0.004 29.78034,11.37626 32.04746,14.03416 1.12464,1.3185 4.16241,8.36667 6.7506,15.6626 l 4.70579,13.26534 12.94314,-0.4082 12.94315,-0.40819 4.80037,-13.57143 c 2.6402,-7.46428 5.56795,-14.34395 6.50613,-15.28817 2.06744,-2.08075 28.71531,-13.28325 31.59744,-13.28325 1.12726,0 8.33323,2.91645 16.01327,6.481 l 13.96371,6.48101 8.94896,-8.98101 8.94894,-8.981 -6.38328,-13.39129 c -3.5108,-7.36521 -6.38329,-14.77759 -6.38329,-16.47194 0,-2.61486 9.08962,-26.13115 10.73712,-27.77865 0.78457,-0.78457 13.53675,4.58869 13.54324,5.70658 0.003,0.50701 -1.97681,5.57987 -4.39946,11.27301 l -4.40481,10.35117 7.33283,16.18847 c 5.56453,12.28465 7.00058,16.80065 5.95508,18.72699 -2.44365,4.50244 -29.71781,30.39566 -32.01671,30.39566 -1.22342,0 -8.8956,-3.24352 -17.04933,-7.20782 l -14.82494,-7.20781 -9.93652,4.21248 -9.9365,4.21249 -5.47317,14.78104 c -3.01023,8.12957 -6.48487,15.90604 -7.7214,17.28104 -1.94274,2.16029 -5.03296,2.5 -22.74113,2.5 -17.86009,0 -20.82458,-0.33171 -23.07484,-2.58197 z"
         style="fill:#ffff00;stroke-width:1.42857146" />
    </g>
  </g>
</svg>
