<?xml version="1.0" encoding="UTF-8" standalone="no"?>
<!-- Created with Inkscape (http://www.inkscape.org/) -->

<svg
   xmlns:dc="http://purl.org/dc/elements/1.1/"
   xmlns:cc="http://creativecommons.org/ns#"
   xmlns:rdf="http://www.w3.org/1999/02/22-rdf-syntax-ns#"
   xmlns:svg="http://www.w3.org/2000/svg"
   xmlns="http://www.w3.org/2000/svg"
   xmlns:sodipodi="http://sodipodi.sourceforge.net/DTD/sodipodi-0.dtd"
   xmlns:inkscape="http://www.inkscape.org/namespaces/inkscape"
   width="210mm"
   height="297mm"
   viewBox="0 0 210 297"
   version="1.1"
   id="svg8"
   sodipodi:docname="affordable.svg"
   inkscape:version="0.92.4 (5da689c313, 2019-01-14)">
  <defs
     id="defs2" />
  <sodipodi:namedview
     id="base"
     pagecolor="#ffffff"
     bordercolor="#666666"
     borderopacity="1.0"
     inkscape:pageopacity="0.0"
     inkscape:pageshadow="2"
     inkscape:zoom="0.57233607"
     inkscape:cx="367.47627"
     inkscape:cy="234.79564"
     inkscape:document-units="mm"
     inkscape:current-layer="layer1"
     showgrid="false"
     inkscape:window-width="958"
     inkscape:window-height="991"
     inkscape:window-x="952"
     inkscape:window-y="0"
     inkscape:window-maximized="0" />
  <metadata
     id="metadata5">
    <rdf:RDF>
      <cc:Work
         rdf:about="">
        <dc:format>image/svg+xml</dc:format>
        <dc:type
           rdf:resource="http://purl.org/dc/dcmitype/StillImage" />
        <dc:title></dc:title>
      </cc:Work>
    </rdf:RDF>
  </metadata>
  <g
     inkscape:label="Layer 1"
     inkscape:groupmode="layer"
     id="layer1">
    <g
       id="surface1"
       transform="matrix(0.35277776,0,0,0.35277776,38.081815,153.86544)"
       style="fill:#ffff00">
      <path
         id="path371"
         d="m 380,180 h -0.26563 C 377.20312,106.08984 329.51953,41.328125 259.69141,16.972656 258.20312,7.238281 249.84766,0.0390625 240,0 H 160 C 150.15234,0.0390625 141.79687,7.238281 140.30859,16.972656 70.480469,41.328125 22.796875,106.08984 20.265625,180 H 20 C 8.953125,180 0,188.95312 0,200 v 13.33203 c 0,11.04688 8.953125,20 20,20 h 360 c 11.04687,0 20,-8.95312 20,-20 V 200 c 0,-11.04688 -8.95313,-20 -20,-20 z M 140,31.273438 V 146.66797 c 0,3.67969 2.98437,6.66406 6.66797,6.66406 3.67969,0 6.66406,-2.98437 6.66406,-6.66406 V 20 c 0,-3.683594 2.98438,-6.667969 6.66797,-6.667969 h 33.33203 V 160 c 0,3.68359 2.98438,6.66797 6.66797,6.66797 3.68359,0 6.66797,-2.98438 6.66797,-6.66797 V 13.332031 H 240 c 3.68359,0 6.66797,2.984375 6.66797,6.667969 v 126.66797 c 0,3.67969 2.98437,6.66406 6.66406,6.66406 3.68359,0 6.66797,-2.98437 6.66797,-6.66406 V 31.273438 C 322.05859,55.054688 363.93359,113.58594 366.39844,180 H 33.601562 C 36.066406,113.58594 77.941406,55.054688 140,31.273438 Z M 386.66797,213.33203 C 386.66797,217.01562 383.68359,220 380,220 H 20 c -3.683594,0 -6.667969,-2.98438 -6.667969,-6.66797 V 200 c 0,-3.68359 2.984375,-6.66797 6.667969,-6.66797 h 360 c 3.68359,0 6.66797,2.98438 6.66797,6.66797 z m 0,0"
         style="fill:#ffff00;fill-opacity:1;fill-rule:nonzero;stroke:none"
         inkscape:connector-curvature="0" />
      <path
         id="path373"
         d="M 166.66797,293.33203 H 80 c -11.046875,0 -20,8.95703 -20,20 V 340 c 0,3.68359 2.984375,6.66797 6.667969,6.66797 3.679687,0 6.664062,-2.98438 6.664062,-6.66797 v -26.66797 c 0,-3.67969 2.984375,-6.66406 6.667969,-6.66406 h 86.66797 c 3.67969,0 6.66406,-2.98438 6.66406,-6.66797 0,-3.68359 -2.98437,-6.66797 -6.66406,-6.66797 z m 0,0"
         style="fill:#ffff00;fill-opacity:1;fill-rule:nonzero;stroke:none"
         inkscape:connector-curvature="0" />
      <path
         id="path375"
         d="M 393.33203,293.33203 H 366 C 362.8125,277.82422 349.16797,266.6875 333.33203,266.66797 H 66.667969 C 48.265625,266.6875 33.355469,281.60156 33.332031,300 H 6.667969 C 2.984375,300 0,302.98437 0,306.66797 V 360 c 0,3.68359 2.984375,6.66797 6.667969,6.66797 H 35.332031 C 41.242188,386.41406 59.390625,399.95703 80,400 h 40 c 30.50781,-0.0859 58.74609,-16.12109 74.45312,-42.27344 1.91407,-3.0625 5.94922,-3.99609 9.01172,-2.08203 0.84375,0.52734 1.55469,1.23828 2.08203,2.08203 C 221.25391,383.87891 249.49219,399.91406 280,400 h 40 c 23.17578,-0.0273 42.82422,-17.0625 46.13281,-40 h 27.19922 C 397.01562,360 400,357.01562 400,353.33203 V 300 c 0,-3.68359 -2.98438,-6.66797 -6.66797,-6.66797 z m -359.999999,60 h -20 v -20 h 20 z m 0,-33.33203 h -20 v -6.66797 h 20 z M 353.33203,353.33203 C 353.3125,371.73437 338.39844,386.64453 320,386.66797 h -40 c -25.82031,-0.0781 -49.71875,-13.64844 -63.01172,-35.78125 -5.67969,-9.39063 -17.89453,-12.39844 -27.28125,-6.71875 -2.75,1.66015 -5.05859,3.96875 -6.71875,6.71875 -13.28906,22.125 -37.17969,35.69531 -62.98828,35.78125 H 80 C 61.601562,386.64453 46.6875,371.73437 46.667969,353.33203 V 300 c 0,-11.04688 8.953125,-20 20,-20 H 333.33203 c 11.04688,0 20,8.95312 20,20 z m 33.33594,-6.66406 h -20 v -20 h 20 z m 0,-33.33594 h -20 v -6.66406 h 20 z m 0,0"
         style="fill:#ffff00;fill-opacity:1;fill-rule:nonzero;stroke:none"
         inkscape:connector-curvature="0" />
      <path
         id="path377"
         d="m 206.66797,293.33203 h -13.33594 c -3.67969,0 -6.66406,2.98438 -6.66406,6.66797 0,3.68359 2.98437,6.66797 6.66406,6.66797 h 13.33594 c 3.67969,0 6.66406,-2.98438 6.66406,-6.66797 0,-3.68359 -2.98437,-6.66797 -6.66406,-6.66797 z m 0,0"
         style="fill:#ffff00;fill-opacity:1;fill-rule:nonzero;stroke:none"
         inkscape:connector-curvature="0" />
    </g>
  </g>
</svg>
