<?xml version="1.0" encoding="UTF-8" standalone="no"?>
<!-- Created with Inkscape (http://www.inkscape.org/) -->

<svg
   xmlns:dc="http://purl.org/dc/elements/1.1/"
   xmlns:cc="http://creativecommons.org/ns#"
   xmlns:rdf="http://www.w3.org/1999/02/22-rdf-syntax-ns#"
   xmlns:svg="http://www.w3.org/2000/svg"
   xmlns="http://www.w3.org/2000/svg"
   xmlns:sodipodi="http://sodipodi.sourceforge.net/DTD/sodipodi-0.dtd"
   xmlns:inkscape="http://www.inkscape.org/namespaces/inkscape"
   width="210mm"
   height="297mm"
   viewBox="0 0 210 297"
   version="1.1"
   id="svg8"
   sodipodi:docname="trust.svg"
   inkscape:version="0.92.4 (5da689c313, 2019-01-14)">
  <defs
     id="defs2" />
  <sodipodi:namedview
     id="base"
     pagecolor="#ffffff"
     bordercolor="#666666"
     borderopacity="1.0"
     inkscape:pageopacity="0.0"
     inkscape:pageshadow="2"
     inkscape:zoom="0.57233607"
     inkscape:cx="367.47627"
     inkscape:cy="234.79564"
     inkscape:document-units="mm"
     inkscape:current-layer="layer1"
     showgrid="false"
     inkscape:window-width="958"
     inkscape:window-height="991"
     inkscape:window-x="952"
     inkscape:window-y="0"
     inkscape:window-maximized="0" />
  <metadata
     id="metadata5">
    <rdf:RDF>
      <cc:Work
         rdf:about="">
        <dc:format>image/svg+xml</dc:format>
        <dc:type
           rdf:resource="http://purl.org/dc/dcmitype/StillImage" />
        <dc:title></dc:title>
      </cc:Work>
    </rdf:RDF>
  </metadata>
  <g
     inkscape:label="Layer 1"
     inkscape:groupmode="layer"
     id="layer1">
    <g
       id="surface1"
       transform="matrix(0.35277776,0,0,0.35277776,34.382144,156.17687)"
       style="fill:#ffff00">
      <path
         id="path470"
         d="M 369.57031,153.45703 C 384.48828,145.99219 393.75,131 393.75,114.32422 V 81.25 c 0,-23.226562 -18.19531,-42.289062 -41.08203,-43.667969 L 337.8125,22.726562 C 327.19531,12.101562 313.0625,6.25 298.04297,6.25 H 269.24219 C 244.84375,6.25 225,26.09375 225,50.492188 c 0,13.515624 6.05078,26.101562 16.60547,34.546874 l 10.63281,8.503907 C 250.04297,111.77344 250,124.26953 250,125 v 6.25 h 12.5 v 4.35547 c 0,11.10547 5.51953,21.41406 14.75781,27.57422 5.46875,3.64453 11.82422,5.57031 18.38672,5.57031 h 1.69141 c 0.89453,0 1.77734,-0.19531 2.66406,-0.26172 V 191.125 l -11.61328,2.32422 c -2.72266,0.54297 -5.22266,2.01172 -7.03125,4.125 l -7.50391,8.75781 c -7.78125,9.07422 -14.08203,19.17969 -18.93359,29.91797 L 218.75,272.41406 V 248.84375 C 218.75,223.94531 208,200.26172 189.26172,183.86719 173.52344,170.08594 153.33203,162.5 132.40625,162.5 H 131.25 v -6.46094 c 14.5,-1.07031 27.10547,-10.09375 32.57031,-23.76562 3.27344,-8.17188 4.92969,-16.78125 4.92969,-25.58594 V 81.25 c 0,-4.417969 -0.94531,-8.605469 -2.60547,-12.417969 C 175.67969,59.804688 181.25,47.085938 181.25,33.835938 181.25,26.46875 178.38281,19.539062 173.16797,14.332031 167.96094,9.117188 161.03125,6.25 153.66406,6.25 h -50.3125 C 87.429688,6.25 72.4375,12.480469 60.726562,24.195312 50.09375,34.820312 43.75,51.476562 43.75,68.75 c 0,22.382812 13.148438,35.84375 18.90625,40.67578 0.730469,8.53125 4.386719,16.46094 10.511719,22.58594 L 75,133.83594 v 28.73828 C 60.875,162.94531 47.363281,167.41797 35.832031,175.65625 17.304688,188.88672 6.25,210.36719 6.25,233.13281 V 287.5 c 0,21.30469 9.742188,40.375 25,52.99219 V 393.75 h 150 v -37.5 h 16.79297 c 15.02734,0 29.15234,-5.85156 39.77734,-16.47656 l 5.9375,-5.9375 V 393.75 h 150 V 236.58594 c 0,-8.54688 -2.01953,-17.10547 -5.84375,-24.74219 -5.32812,-10.63672 -14.11328,-19.42578 -24.75,-24.75 L 356.25,183.63672 V 160.11328 Z M 249.41406,75.273438 C 241.84375,69.21875 237.5,60.179688 237.5,50.492188 237.5,32.988281 251.73828,18.75 269.24219,18.75 h 28.80078 c 11.6875,0 22.66797,4.550781 30.9375,12.8125 L 347.41406,50 H 350 c 17.23047,0 31.25,14.019531 31.25,31.25 v 33.07422 c 0,11.91406 -6.61719,22.625 -17.27344,27.94922 L 351.5,148.51172 c -3.04297,-3.87891 -5.23047,-8.25 -6.35547,-12.85547 -0.61328,-2.50781 -1.03125,-4.98047 -1.23828,-7.3125 C 348.61719,124.9375 356.25,117.67578 356.25,106.25 c 0,-13.789062 -11.21094,-25 -25,-25 h -0.85156 C 329.16797,76.917969 326.61328,73.023438 322.75,69.617188 315.83203,63.523438 304.09375,56.25 287.5,56.25 c -13.8125,0 -27.23047,6.632812 -27.79297,6.90625 l -2.73828,1.367188 -0.60156,2.996093 c -0.79688,4 -1.49219,7.886719 -2.10547,11.636719 z M 302.38672,212.5 h -8.66016 l 0.0156,-7.375 13.70703,-2.73828 z m -6.85547,71.58594 -7.83594,-14.10547 L 293.05078,225 h 8.1875 l 8.92969,40.1875 c -4.22266,6.76172 -9.10547,13.09375 -14.63672,18.89844 z m 23.57422,-36.28125 -6.27344,-28.24219 10.14453,-20.28125 11.57422,-2.3125 -10.8125,37.83594 c -1.27734,4.45703 -2.875,8.76953 -4.63281,13 z M 312.5,166.375 l 19.97656,-3.99219 -2.45703,-12.25781 -28.63672,5.73047 c -1.32812,0.26172 -2.68359,0.39453 -4.04687,0.39453 h -1.69141 c -4.08984,0 -8.05078,-1.19922 -11.44922,-3.46875 C 278.4375,148.94922 275,142.52344 275,135.60547 V 118.75 h -12.32031 c 0.39062,-8.73828 1.58203,-25.78125 5.33203,-45.605469 C 272.02344,71.5 279.88281,68.75 287.5,68.75 c 12.69531,0 21.67969,5.574219 26.98828,10.25 2.94922,2.601562 4.26172,5.21875 4.26172,8.5 v 6.25 h 12.5 c 6.89453,0 12.5,5.605469 12.5,12.5 0,8.38672 -8.98828,13.13281 -9.04297,13.15625 L 331.25,121.13672 V 125 c 0,4.26953 0.58594,8.85156 1.75,13.61328 1.80078,7.375 5.49219,14.28125 10.75,20.125 V 182.375 l -31.25,6.25 z m -31.25,50.75781 v 1.25 l -3.92578,32.94141 -8.44141,-15.19922 c 3.45313,-6.70703 7.58594,-13.0625 12.36719,-18.99219 z m -75,31.71094 v 36.07031 l -3.34375,3.34375 C 199.41406,291.75 194.57422,293.75 189.63672,293.75 H 181.25 v -37.5 h -12.5 v 37.5 h -6.21094 c -0.0156,0 -0.0195,0 -0.0312,0 -0.008,0 -0.008,0 -0.008,0 h -43.75 v -17.51172 l 39.72656,-96.48047 c 8.19922,3.09375 15.84766,7.64063 22.55469,13.51172 16.02344,14.02344 25.21875,34.28125 25.21875,55.57422 z m -25,76.83203 c 0.008,4.80469 -1.86719,9.34375 -5.29297,12.76953 -3.40234,3.40625 -7.89453,5.28125 -12.66406,5.30469 H 156.25 v 0.008 h -12.5 V 306.25 h 18.78906 c 10.29688,0.0195 18.69141,8.46094 18.71094,19.42578 z M 121.13672,175 l -6.25,12.5 H 103.86328 L 97.613281,175 Z m 8.01172,43.13672 -3.89844,-23.41016 9.80469,-19.60937 c 3.8125,0.14062 7.59375,0.52734 11.30078,1.23828 z M 83.636719,175 93.5,194.72656 90.394531,213.35156 72.507812,175.33594 C 73.96875,175.22656 75.40625,175 76.882812,175 Z m 21.656251,25 h 8.15625 l 6.67578,40.05078 -8.01172,19.46094 L 99.75,233.23828 Z M 156.25,106.6875 c 0,7.20703 -1.35547,14.25781 -4.03906,20.94531 -3.91016,9.79297 -13.26172,16.125 -23.8125,16.125 -5.07813,0 -10,-1.48828 -14.22266,-4.30859 l -10.71484,-7.14453 -6.92969,10.40234 10.71094,7.14453 c 3.55078,2.35938 7.44531,4.02344 11.5,5.08594 V 162.5 H 87.492188 V 128.66406 L 82,123.16797 C 77.488281,118.64844 75,112.63672 75,106.25 75,102.80469 77.804688,100 81.25,100 H 87.5 V 81.25 c 0,-10.335938 8.414062,-18.75 18.75,-18.75 h 31.25 c 10.33594,0 18.75,8.414062 18.75,18.75 z M 66.074219,95.261719 C 61.574219,90.007812 56.25,81.179688 56.25,68.75 56.25,54.71875 61.226562,41.363281 69.960938,32.625 78.914062,23.679688 90.769531,18.75 103.35156,18.75 h 50.3125 c 3.96875,0 7.85938,1.613281 10.66797,4.417969 2.80469,2.808593 4.41797,6.699219 4.41797,10.667969 0,9.226562 -3.67969,18.070312 -9.98828,24.652343 C 153.17578,53.261719 145.73047,50 137.5,50 H 106.25 C 89.019531,50 75,64.019531 75,81.25 v 7.320312 c -3.613281,1.28125 -6.710938,3.640626 -8.925781,6.691407 z M 18.75,287.5 v -54.36719 c 0,-18.73828 9.101562,-36.42187 24.34375,-47.30859 5.136719,-3.66797 10.757812,-6.39453 16.667969,-8.21875 L 106.25,276.39844 V 293.75 h -37.5 v -37.5 h -12.5 v 37.5 c 0,6.89453 5.59375,12.5 12.460938,12.5 H 131.25 v 37.50781 L 75,343.75 c -31.011719,0 -56.25,-25.23047 -56.25,-56.25 z m 150,93.75 h -125 V 348.66406 C 53.136719,353.48047 63.742188,356.25 75,356.25 l 88.19531,0.008 h 0.004 c 0.0312,0 0.0625,-0.008 0.0937,-0.008 H 168.75 Z m 60.22656,-50.3125 c -8.26562,8.26172 -19.25,12.8125 -30.9375,12.8125 H 187.6875 c 3.88672,-5.25781 6.07422,-11.59375 6.0625,-18.67969 -0.0117,-7.08984 -2.46875,-13.5625 -6.44922,-18.82031 h 2.33594 c 8.23047,0 16.28906,-3.33594 22.11328,-9.15625 l 34.69531,-34.69531 C 244.72656,270.67578 243.75,279.125 243.75,287.67578 v 28.48828 z M 256.25,287.67578 c 0,-12.73047 2.23047,-25.24609 6.36719,-37.08984 l 23.51953,42.33203 c -0.85547,0.72656 -1.66016,1.49609 -2.54297,2.19922 L 281.25,297 v 84.25 h -25 z m 101.32031,-89.40234 c 8.23438,4.12109 15.03516,10.92578 19.15625,19.15625 2.96094,5.91406 4.52344,12.53906 4.52344,19.15625 V 381.25 h -37.5 v -100 h -12.5 v 100 h -37.5 v -78.28906 c 20.23828,-16.94922 34.73047,-39.26563 42.00781,-64.71875 l 12.57813,-44.03125 0.78906,-0.15625 z m 0,0"
         style="fill:#ffff00;fill-opacity:1;fill-rule:nonzero;stroke:none"
         inkscape:connector-curvature="0" />
      <path
         id="path472"
         d="m 318.75,350 c 0,3.45312 -2.79688,6.25 -6.25,6.25 -3.45313,0 -6.25,-2.79688 -6.25,-6.25 0,-3.45313 2.79687,-6.25 6.25,-6.25 3.45312,0 6.25,2.79687 6.25,6.25 z m 0,0"
         style="fill:#ffff00;fill-opacity:1;fill-rule:nonzero;stroke:none"
         inkscape:connector-curvature="0" />
      <path
         id="path474"
         d="m 318.75,325 c 0,3.45312 -2.79688,6.25 -6.25,6.25 -3.45313,0 -6.25,-2.79688 -6.25,-6.25 0,-3.45313 2.79687,-6.25 6.25,-6.25 3.45312,0 6.25,2.79687 6.25,6.25 z m 0,0"
         style="fill:#ffff00;fill-opacity:1;fill-rule:nonzero;stroke:none"
         inkscape:connector-curvature="0" />
    </g>
  </g>
</svg>
